<?xml version="1.0" standalone="no"?>
<svg width="567.429" height="549.239" viewBox="0 0 567.429 549.239" xmlns="http://www.w3.org/2000/svg" shape-rendering="crispEdges">
<title>
anal_davis_c2.svg
</title>
<desc>
Creator: ROOT Version 6.16/00
CreationDate: Sun Nov 17 16:08:41 2019</desc>
<defs>
</defs>
<rect x="0.5" y="0" width="566.929" height="548.739" fill="white"/>
<rect x="57.1929" y="54.8739" width="453.543" height="438.991" fill="white"/>
<rect x="57.1929" y="54.8739" width="453.543" height="438.991" fill="none" stroke="black"/>
<rect x="57.1929" y="54.8739" width="453.543" height="438.991" fill="white"/>
<rect x="57.1929" y="54.8739" width="453.543" height="438.991" fill="none" stroke="black"/>
<path d="M57.1929,493.865h 453.543" fill="none" stroke="black"/>
<path d="M77.8085,54.8739v 438.991" fill="none" stroke="black" stroke-dasharray=" 1, 2"/>
<path d="M163.707,54.8739v 438.991" fill="none" stroke="black" stroke-dasharray=" 1, 2"/>
<path d="M249.605,54.8739v 438.991" fill="none" stroke="black" stroke-dasharray=" 1, 2"/>
<path d="M335.504,54.8739v 438.991" fill="none" stroke="black" stroke-dasharray=" 1, 2"/>
<path d="M421.402,54.8739v 438.991" fill="none" stroke="black" stroke-dasharray=" 1, 2"/>
<path d="M507.3,54.8739v 438.991" fill="none" stroke="black" stroke-dasharray=" 1, 2"/>
<path d="M77.8085,54.8739v 438.991" fill="none" stroke="black" stroke-dasharray=" 1, 2"/>
<path d="M507.3,54.8739v 438.991" fill="none" stroke="black" stroke-dasharray=" 1, 2"/>
<path d="M57.1929,493.865v -438.991" fill="none" stroke="black"/>
<path d="M510.736,493.865h -453.543" fill="none" stroke="black" stroke-dasharray=" 1, 2"/>
<path d="M510.736,445.088h -453.543" fill="none" stroke="black" stroke-dasharray=" 1, 2"/>
<path d="M510.736,396.311h -453.543" fill="none" stroke="black" stroke-dasharray=" 1, 2"/>
<path d="M510.736,347.535h -453.543" fill="none" stroke="black" stroke-dasharray=" 1, 2"/>
<path d="M510.736,298.758h -453.543" fill="none" stroke="black" stroke-dasharray=" 1, 2"/>
<path d="M510.736,249.981h -453.543" fill="none" stroke="black" stroke-dasharray=" 1, 2"/>
<path d="M510.736,201.204h -453.543" fill="none" stroke="black" stroke-dasharray=" 1, 2"/>
<path d="M510.736,152.427h -453.543" fill="none" stroke="black" stroke-dasharray=" 1, 2"/>
<path d="M510.736,103.651h -453.543" fill="none" stroke="black" stroke-dasharray=" 1, 2"/>
<path d="M510.736,54.8739h -453.543" fill="none" stroke="black" stroke-dasharray=" 1, 2"/>
<path d="M57.1929,493.865h 453.543" fill="none" stroke="black"/>
<path d="M77.8085,480.695v 13.1697" fill="none" stroke="black"/>
<path d="M94.9882,487.28v 6.58487" fill="none" stroke="black"/>
<path d="M112.168,487.28v 6.58487" fill="none" stroke="black"/>
<path d="M129.348,487.28v 6.58487" fill="none" stroke="black"/>
<path d="M146.527,487.28v 6.58487" fill="none" stroke="black"/>
<path d="M163.707,480.695v 13.1697" fill="none" stroke="black"/>
<path d="M180.887,487.28v 6.58487" fill="none" stroke="black"/>
<path d="M198.066,487.28v 6.58487" fill="none" stroke="black"/>
<path d="M215.246,487.28v 6.58487" fill="none" stroke="black"/>
<path d="M232.426,487.28v 6.58487" fill="none" stroke="black"/>
<path d="M249.605,480.695v 13.1697" fill="none" stroke="black"/>
<path d="M266.785,487.28v 6.58487" fill="none" stroke="black"/>
<path d="M283.965,487.28v 6.58487" fill="none" stroke="black"/>
<path d="M301.144,487.28v 6.58487" fill="none" stroke="black"/>
<path d="M318.324,487.28v 6.58487" fill="none" stroke="black"/>
<path d="M335.504,480.695v 13.1697" fill="none" stroke="black"/>
<path d="M352.683,487.28v 6.58487" fill="none" stroke="black"/>
<path d="M369.863,487.28v 6.58487" fill="none" stroke="black"/>
<path d="M387.043,487.28v 6.58487" fill="none" stroke="black"/>
<path d="M404.222,487.28v 6.58487" fill="none" stroke="black"/>
<path d="M421.402,480.695v 13.1697" fill="none" stroke="black"/>
<path d="M438.582,487.28v 6.58487" fill="none" stroke="black"/>
<path d="M455.761,487.28v 6.58487" fill="none" stroke="black"/>
<path d="M472.941,487.28v 6.58487" fill="none" stroke="black"/>
<path d="M490.121,487.28v 6.58487" fill="none" stroke="black"/>
<path d="M507.3,480.695v 13.1697" fill="none" stroke="black"/>
<path d="M77.8085,480.695v 13.1697" fill="none" stroke="black"/>
<path d="M60.6288,487.28v 6.58487" fill="none" stroke="black"/>
<path d="M507.3,480.695v 13.1697" fill="none" stroke="black"/>
<text xml:space="preserve" x="72.503" y="511.601" fill="black" font-size="18.1201" font-family="Helvetica">0</text>
<text xml:space="preserve" x="153.601" y="511.601" fill="black" font-size="18.1201" font-family="Helvetica">50</text>
<text xml:space="preserve" x="233.941" y="511.601" fill="black" font-size="18.1201" font-family="Helvetica">100</text>
<text xml:space="preserve" x="320.345" y="511.601" fill="black" font-size="18.1201" font-family="Helvetica">150</text>
<text xml:space="preserve" x="405.991" y="511.601" fill="black" font-size="18.1201" font-family="Helvetica">200</text>
<text xml:space="preserve" x="491.636" y="511.601" fill="black" font-size="18.1201" font-family="Helvetica">250</text>
<text xml:space="preserve" x="338.535" y="529.791" fill="black" font-size="18.1201" font-family="Helvetica">incident position(mm)</text>
<path d="M57.1929,493.865v -438.991" fill="none" stroke="black"/>
<path d="M70.7992,493.865h -13.6063" fill="none" stroke="black"/>
<path d="M63.9961,484.11h -6.80315" fill="none" stroke="black"/>
<path d="M63.9961,474.354h -6.80315" fill="none" stroke="black"/>
<path d="M63.9961,464.599h -6.80315" fill="none" stroke="black"/>
<path d="M63.9961,454.844h -6.80315" fill="none" stroke="black"/>
<path d="M70.7992,445.088h -13.6063" fill="none" stroke="black"/>
<path d="M63.9961,435.333h -6.80315" fill="none" stroke="black"/>
<path d="M63.9961,425.578h -6.80315" fill="none" stroke="black"/>
<path d="M63.9961,415.822h -6.80315" fill="none" stroke="black"/>
<path d="M63.9961,406.067h -6.80315" fill="none" stroke="black"/>
<path d="M70.7992,396.311h -13.6063" fill="none" stroke="black"/>
<path d="M63.9961,386.556h -6.80315" fill="none" stroke="black"/>
<path d="M63.9961,376.801h -6.80315" fill="none" stroke="black"/>
<path d="M63.9961,367.045h -6.80315" fill="none" stroke="black"/>
<path d="M63.9961,357.29h -6.80315" fill="none" stroke="black"/>
<path d="M70.7992,347.535h -13.6063" fill="none" stroke="black"/>
<path d="M63.9961,337.779h -6.80315" fill="none" stroke="black"/>
<path d="M63.9961,328.024h -6.80315" fill="none" stroke="black"/>
<path d="M63.9961,318.269h -6.80315" fill="none" stroke="black"/>
<path d="M63.9961,308.513h -6.80315" fill="none" stroke="black"/>
<path d="M70.7992,298.758h -13.6063" fill="none" stroke="black"/>
<path d="M63.9961,289.003h -6.80315" fill="none" stroke="black"/>
<path d="M63.9961,279.247h -6.80315" fill="none" stroke="black"/>
<path d="M63.9961,269.492h -6.80315" fill="none" stroke="black"/>
<path d="M63.9961,259.736h -6.80315" fill="none" stroke="black"/>
<path d="M70.7992,249.981h -13.6063" fill="none" stroke="black"/>
<path d="M63.9961,240.226h -6.80315" fill="none" stroke="black"/>
<path d="M63.9961,230.47h -6.80315" fill="none" stroke="black"/>
<path d="M63.9961,220.715h -6.80315" fill="none" stroke="black"/>
<path d="M63.9961,210.96h -6.80315" fill="none" stroke="black"/>
<path d="M70.7992,201.204h -13.6063" fill="none" stroke="black"/>
<path d="M63.9961,191.449h -6.80315" fill="none" stroke="black"/>
<path d="M63.9961,181.694h -6.80315" fill="none" stroke="black"/>
<path d="M63.9961,171.938h -6.80315" fill="none" stroke="black"/>
<path d="M63.9961,162.183h -6.80315" fill="none" stroke="black"/>
<path d="M70.7992,152.427h -13.6063" fill="none" stroke="black"/>
<path d="M63.9961,142.672h -6.80315" fill="none" stroke="black"/>
<path d="M63.9961,132.917h -6.80315" fill="none" stroke="black"/>
<path d="M63.9961,123.161h -6.80315" fill="none" stroke="black"/>
<path d="M63.9961,113.406h -6.80315" fill="none" stroke="black"/>
<path d="M70.7992,103.651h -13.6063" fill="none" stroke="black"/>
<path d="M63.9961,93.8953h -6.80315" fill="none" stroke="black"/>
<path d="M63.9961,84.14h -6.80315" fill="none" stroke="black"/>
<path d="M63.9961,74.3846h -6.80315" fill="none" stroke="black"/>
<path d="M63.9961,64.6293h -6.80315" fill="none" stroke="black"/>
<path d="M70.7992,54.8739h -13.6063" fill="none" stroke="black"/>
<text xml:space="preserve" x="44.4597" y="500.232" fill="black" font-size="18.1201" font-family="Helvetica">0</text>
<text xml:space="preserve" x="44.4597" y="451.724" fill="black" font-size="18.1201" font-family="Helvetica">5</text>
<text xml:space="preserve" x="34.6067" y="402.459" fill="black" font-size="18.1201" font-family="Helvetica">10</text>
<text xml:space="preserve" x="34.6067" y="353.952" fill="black" font-size="18.1201" font-family="Helvetica">15</text>
<text xml:space="preserve" x="34.6067" y="305.444" fill="black" font-size="18.1201" font-family="Helvetica">20</text>
<text xml:space="preserve" x="34.6067" y="256.179" fill="black" font-size="18.1201" font-family="Helvetica">25</text>
<text xml:space="preserve" x="34.6067" y="207.672" fill="black" font-size="18.1201" font-family="Helvetica">30</text>
<text xml:space="preserve" x="34.6067" y="159.165" fill="black" font-size="18.1201" font-family="Helvetica">35</text>
<text xml:space="preserve" x="34.6067" y="109.899" fill="black" font-size="18.1201" font-family="Helvetica">40</text>
<text xml:space="preserve" x="34.6067" y="61.3921" fill="black" font-size="18.1201" font-family="Helvetica">45</text>
<g transform="rotate(-90,21.7219,87.9195)">
<text xml:space="preserve" x="21.7219" y="87.9195" fill="black" font-size="18.1201" font-family="Helvetica">Npe</text>
</g>
<path d="M77.8085,351.179v -0.393897" fill="none" stroke="black"/>
<path d="M76.2927,350.785h 3.03171" fill="none" stroke="black"/>
<path d="M77.8085,351.179v 0.393897" fill="none" stroke="black"/>
<path d="M76.2927,351.573h 3.03171" fill="none" stroke="black"/>
<path d="M94.9882,347.582v -0.410765" fill="none" stroke="black"/>
<path d="M93.4723,347.172h 3.03171" fill="none" stroke="black"/>
<path d="M94.9882,347.582v 0.410765" fill="none" stroke="black"/>
<path d="M93.4723,347.993h 3.03171" fill="none" stroke="black"/>
<path d="M112.168,343.704v -0.402423" fill="none" stroke="black"/>
<path d="M110.652,343.301h 3.03171" fill="none" stroke="black"/>
<path d="M112.168,343.704v 0.402423" fill="none" stroke="black"/>
<path d="M110.652,344.106h 3.03171" fill="none" stroke="black"/>
<path d="M129.348,337.778v -0.414024" fill="none" stroke="black"/>
<path d="M127.832,337.364h 3.03171" fill="none" stroke="black"/>
<path d="M129.348,337.778v 0.414024" fill="none" stroke="black"/>
<path d="M127.832,338.192h 3.03171" fill="none" stroke="black"/>
<path d="M146.527,332.474v -0.423682" fill="none" stroke="black"/>
<path d="M145.011,332.051h 3.03171" fill="none" stroke="black"/>
<path d="M146.527,332.474v 0.423682" fill="none" stroke="black"/>
<path d="M145.011,332.898h 3.03171" fill="none" stroke="black"/>
<path d="M163.707,328.304v -0.434689" fill="none" stroke="black"/>
<path d="M162.191,327.869h 3.03171" fill="none" stroke="black"/>
<path d="M163.707,328.304v 0.434689" fill="none" stroke="black"/>
<path d="M162.191,328.739h 3.03171" fill="none" stroke="black"/>
<path d="M180.887,323.861v -0.434934" fill="none" stroke="black"/>
<path d="M179.371,323.426h 3.03171" fill="none" stroke="black"/>
<path d="M180.887,323.861v 0.434934" fill="none" stroke="black"/>
<path d="M179.371,324.296h 3.03171" fill="none" stroke="black"/>
<path d="M198.066,315.574v -0.44418" fill="none" stroke="black"/>
<path d="M196.55,315.13h 3.03171" fill="none" stroke="black"/>
<path d="M198.066,315.574v 0.44418" fill="none" stroke="black"/>
<path d="M196.55,316.018h 3.03171" fill="none" stroke="black"/>
<path d="M215.246,306.563v -0.459631" fill="none" stroke="black"/>
<path d="M213.73,306.103h 3.03171" fill="none" stroke="black"/>
<path d="M215.246,306.563v 0.459631" fill="none" stroke="black"/>
<path d="M213.73,307.023h 3.03171" fill="none" stroke="black"/>
<path d="M232.426,298.39v -0.454762" fill="none" stroke="black"/>
<path d="M230.91,297.935h 3.03171" fill="none" stroke="black"/>
<path d="M232.426,298.39v 0.454762" fill="none" stroke="black"/>
<path d="M230.91,298.845h 3.03171" fill="none" stroke="black"/>
<path d="M249.605,288.962v -0.473349" fill="none" stroke="black"/>
<path d="M248.089,288.488h 3.03171" fill="none" stroke="black"/>
<path d="M249.605,288.962v 0.473349" fill="none" stroke="black"/>
<path d="M248.089,289.435h 3.03171" fill="none" stroke="black"/>
<path d="M266.785,276.503v -0.490705" fill="none" stroke="black"/>
<path d="M265.269,276.012h 3.03171" fill="none" stroke="black"/>
<path d="M266.785,276.503v 0.490705" fill="none" stroke="black"/>
<path d="M265.269,276.994h 3.03171" fill="none" stroke="black"/>
<path d="M283.965,267.194v -0.493992" fill="none" stroke="black"/>
<path d="M282.449,266.7h 3.03171" fill="none" stroke="black"/>
<path d="M283.965,267.194v 0.493992" fill="none" stroke="black"/>
<path d="M282.449,267.688h 3.03171" fill="none" stroke="black"/>
<path d="M301.144,260.24v -0.519543" fill="none" stroke="black"/>
<path d="M299.628,259.72h 3.03171" fill="none" stroke="black"/>
<path d="M301.144,260.24v 0.519543" fill="none" stroke="black"/>
<path d="M299.628,260.759h 3.03171" fill="none" stroke="black"/>
<path d="M318.324,252.443v -0.516748" fill="none" stroke="black"/>
<path d="M316.808,251.927h 3.03171" fill="none" stroke="black"/>
<path d="M318.324,252.443v 0.516748" fill="none" stroke="black"/>
<path d="M316.808,252.96h 3.03171" fill="none" stroke="black"/>
<path d="M335.504,247.973v -0.519222" fill="none" stroke="black"/>
<path d="M333.988,247.454h 3.03171" fill="none" stroke="black"/>
<path d="M335.504,247.973v 0.519222" fill="none" stroke="black"/>
<path d="M333.988,248.493h 3.03171" fill="none" stroke="black"/>
<path d="M352.683,245.88v -0.517263" fill="none" stroke="black"/>
<path d="M351.167,245.363h 3.03171" fill="none" stroke="black"/>
<path d="M352.683,245.88v 0.517263" fill="none" stroke="black"/>
<path d="M351.167,246.397h 3.03171" fill="none" stroke="black"/>
<path d="M369.863,233.555v -0.536798" fill="none" stroke="black"/>
<path d="M368.347,233.018h 3.03171" fill="none" stroke="black"/>
<path d="M369.863,233.555v 0.536798" fill="none" stroke="black"/>
<path d="M368.347,234.092h 3.03171" fill="none" stroke="black"/>
<path d="M387.043,231.953v -0.534511" fill="none" stroke="black"/>
<path d="M385.527,231.419h 3.03171" fill="none" stroke="black"/>
<path d="M387.043,231.953v 0.534511" fill="none" stroke="black"/>
<path d="M385.527,232.488h 3.03171" fill="none" stroke="black"/>
<path d="M404.222,251.42v -0.501505" fill="none" stroke="black"/>
<path d="M402.706,250.918h 3.03171" fill="none" stroke="black"/>
<path d="M404.222,251.42v 0.501505" fill="none" stroke="black"/>
<path d="M402.706,251.921h 3.03171" fill="none" stroke="black"/>
<path d="M421.402,253.198v -0.510522" fill="none" stroke="black"/>
<path d="M419.886,252.688h 3.03171" fill="none" stroke="black"/>
<path d="M421.402,253.198v 0.510522" fill="none" stroke="black"/>
<path d="M419.886,253.709h 3.03171" fill="none" stroke="black"/>
<path d="M438.582,265.944v -0.486101" fill="none" stroke="black"/>
<path d="M437.066,265.458h 3.03171" fill="none" stroke="black"/>
<path d="M438.582,265.944v 0.486101" fill="none" stroke="black"/>
<path d="M437.066,266.43h 3.03171" fill="none" stroke="black"/>
<path d="M455.761,305.979v -0.449923" fill="none" stroke="black"/>
<path d="M454.245,305.529h 3.03171" fill="none" stroke="black"/>
<path d="M455.761,305.979v 0.449923" fill="none" stroke="black"/>
<path d="M454.245,306.429h 3.03171" fill="none" stroke="black"/>
<path d="M472.941,346.348v -0.405865" fill="none" stroke="black"/>
<path d="M471.425,345.943h 3.03171" fill="none" stroke="black"/>
<path d="M472.941,346.348v 0.405865" fill="none" stroke="black"/>
<path d="M471.425,346.754h 3.03171" fill="none" stroke="black"/>
<path d="M490.121,377.19v -0.357287" fill="none" stroke="black"/>
<path d="M488.605,376.833h 3.03171" fill="none" stroke="black"/>
<path d="M490.121,377.19v 0.357287" fill="none" stroke="black"/>
<path d="M488.605,377.547h 3.03171" fill="none" stroke="black"/>
<path d="M77.8085,351.179l 17.1797, -3.5968l 17.1797, -3.87873l 17.1797, -5.9254l 17.1797, -5.30399l 17.1797, -4.17042l 17.1797, -4.44259l 17.1797, -8.28718l 17.1797, -9.01102l 17.1797, -8.17304l 17.1797, -9.42855l 17.1797, -12.4586l 17.1797,
 -9.30856l 17.1797, -6.9546l 17.1797, -7.79648l 17.1797, -4.46991l 17.1797, -2.0935l 17.1797, -12.3249l 17.1797, -1.60183l 17.1797, 19.4668l 17.1797, 1.7784l 17.1797, 12.7454l 17.1797, 40.035l 17.1797, 40.3696l 17.1797, 30.8416" fill="none"
 stroke="black"/>
<g stroke="black" stroke-width="1" fill="black">
<circle cx="77.8085" cy="351.179" r="0.121268"/>
<circle cx="94.9882" cy="347.582" r="0.121268"/>
<circle cx="112.168" cy="343.704" r="0.121268"/>
<circle cx="129.348" cy="337.778" r="0.121268"/>
<circle cx="146.527" cy="332.474" r="0.121268"/>
<circle cx="163.707" cy="328.304" r="0.121268"/>
<circle cx="180.887" cy="323.861" r="0.121268"/>
<circle cx="198.066" cy="315.574" r="0.121268"/>
<circle cx="215.246" cy="306.563" r="0.121268"/>
<circle cx="232.426" cy="298.39" r="0.121268"/>
<circle cx="249.605" cy="288.962" r="0.121268"/>
<circle cx="266.785" cy="276.503" r="0.121268"/>
<circle cx="283.965" cy="267.194" r="0.121268"/>
<circle cx="301.144" cy="260.24" r="0.121268"/>
<circle cx="318.324" cy="252.443" r="0.121268"/>
<circle cx="335.504" cy="247.973" r="0.121268"/>
<circle cx="352.683" cy="245.88" r="0.121268"/>
<circle cx="369.863" cy="233.555" r="0.121268"/>
<circle cx="387.043" cy="231.953" r="0.121268"/>
<circle cx="404.222" cy="251.42" r="0.121268"/>
<circle cx="421.402" cy="253.198" r="0.121268"/>
<circle cx="438.582" cy="265.944" r="0.121268"/>
<circle cx="455.761" cy="305.979" r="0.121268"/>
<circle cx="472.941" cy="346.348" r="0.121268"/>
<circle cx="490.121" cy="377.19" r="0.121268"/>
</g>
<path d="M77.8085,361.569v -0.378923" fill="none" stroke="#ff0000"/>
<path d="M76.2927,361.19h 3.03171" fill="none" stroke="#ff0000"/>
<path d="M77.8085,361.569v 0.378923" fill="none" stroke="#ff0000"/>
<path d="M76.2927,361.948h 3.03171" fill="none" stroke="#ff0000"/>
<path d="M94.9882,358.972v -0.387668" fill="none" stroke="#ff0000"/>
<path d="M93.4723,358.584h 3.03171" fill="none" stroke="#ff0000"/>
<path d="M94.9882,358.972v 0.387668" fill="none" stroke="#ff0000"/>
<path d="M93.4723,359.359h 3.03171" fill="none" stroke="#ff0000"/>
<path d="M112.168,355.682v -0.386263" fill="none" stroke="#ff0000"/>
<path d="M110.652,355.296h 3.03171" fill="none" stroke="#ff0000"/>
<path d="M112.168,355.682v 0.386263" fill="none" stroke="#ff0000"/>
<path d="M110.652,356.069h 3.03171" fill="none" stroke="#ff0000"/>
<path d="M129.348,350.437v -0.393261" fill="none" stroke="#ff0000"/>
<path d="M127.832,350.044h 3.03171" fill="none" stroke="#ff0000"/>
<path d="M129.348,350.437v 0.393261" fill="none" stroke="#ff0000"/>
<path d="M127.832,350.83h 3.03171" fill="none" stroke="#ff0000"/>
<path d="M146.527,343.469v -0.399828" fill="none" stroke="#ff0000"/>
<path d="M145.011,343.069h 3.03171" fill="none" stroke="#ff0000"/>
<path d="M146.527,343.469v 0.399828" fill="none" stroke="#ff0000"/>
<path d="M145.011,343.868h 3.03171" fill="none" stroke="#ff0000"/>
<path d="M163.707,334.345v -0.423802" fill="none" stroke="#ff0000"/>
<path d="M162.191,333.922h 3.03171" fill="none" stroke="#ff0000"/>
<path d="M163.707,334.345v 0.423802" fill="none" stroke="#ff0000"/>
<path d="M162.191,334.769h 3.03171" fill="none" stroke="#ff0000"/>
<path d="M180.887,326.638v -0.423184" fill="none" stroke="#ff0000"/>
<path d="M179.371,326.215h 3.03171" fill="none" stroke="#ff0000"/>
<path d="M180.887,326.638v 0.423184" fill="none" stroke="#ff0000"/>
<path d="M179.371,327.061h 3.03171" fill="none" stroke="#ff0000"/>
<path d="M198.066,319.278v -0.431967" fill="none" stroke="#ff0000"/>
<path d="M196.55,318.846h 3.03171" fill="none" stroke="#ff0000"/>
<path d="M198.066,319.278v 0.431967" fill="none" stroke="#ff0000"/>
<path d="M196.55,319.71h 3.03171" fill="none" stroke="#ff0000"/>
<path d="M215.246,310.763v -0.446448" fill="none" stroke="#ff0000"/>
<path d="M213.73,310.316h 3.03171" fill="none" stroke="#ff0000"/>
<path d="M215.246,310.763v 0.446448" fill="none" stroke="#ff0000"/>
<path d="M213.73,311.209h 3.03171" fill="none" stroke="#ff0000"/>
<path d="M232.426,301.329v -0.453882" fill="none" stroke="#ff0000"/>
<path d="M230.91,300.875h 3.03171" fill="none" stroke="#ff0000"/>
<path d="M232.426,301.329v 0.453882" fill="none" stroke="#ff0000"/>
<path d="M230.91,301.783h 3.03171" fill="none" stroke="#ff0000"/>
<path d="M249.605,290.56v -0.468617" fill="none" stroke="#ff0000"/>
<path d="M248.089,290.092h 3.03171" fill="none" stroke="#ff0000"/>
<path d="M249.605,290.56v 0.468617" fill="none" stroke="#ff0000"/>
<path d="M248.089,291.029h 3.03171" fill="none" stroke="#ff0000"/>
<path d="M266.785,281.805v -0.470818" fill="none" stroke="#ff0000"/>
<path d="M265.269,281.334h 3.03171" fill="none" stroke="#ff0000"/>
<path d="M266.785,281.805v 0.470818" fill="none" stroke="#ff0000"/>
<path d="M265.269,282.276h 3.03171" fill="none" stroke="#ff0000"/>
<path d="M283.965,268.944v -0.490741" fill="none" stroke="#ff0000"/>
<path d="M282.449,268.453h 3.03171" fill="none" stroke="#ff0000"/>
<path d="M283.965,268.944v 0.490741" fill="none" stroke="#ff0000"/>
<path d="M282.449,269.434h 3.03171" fill="none" stroke="#ff0000"/>
<path d="M301.144,257.673v -0.519972" fill="none" stroke="#ff0000"/>
<path d="M299.628,257.153h 3.03171" fill="none" stroke="#ff0000"/>
<path d="M301.144,257.673v 0.519972" fill="none" stroke="#ff0000"/>
<path d="M299.628,258.193h 3.03171" fill="none" stroke="#ff0000"/>
<path d="M318.324,251.982v -0.50161" fill="none" stroke="#ff0000"/>
<path d="M316.808,251.48h 3.03171" fill="none" stroke="#ff0000"/>
<path d="M318.324,251.982v 0.50161" fill="none" stroke="#ff0000"/>
<path d="M316.808,252.484h 3.03171" fill="none" stroke="#ff0000"/>
<path d="M335.504,251.492v -0.507687" fill="none" stroke="#ff0000"/>
<path d="M333.988,250.984h 3.03171" fill="none" stroke="#ff0000"/>
<path d="M335.504,251.492v 0.507687" fill="none" stroke="#ff0000"/>
<path d="M333.988,252h 3.03171" fill="none" stroke="#ff0000"/>
<path d="M352.683,234.869v -0.516854" fill="none" stroke="#ff0000"/>
<path d="M351.167,234.352h 3.03171" fill="none" stroke="#ff0000"/>
<path d="M352.683,234.869v 0.516854" fill="none" stroke="#ff0000"/>
<path d="M351.167,235.386h 3.03171" fill="none" stroke="#ff0000"/>
<path d="M369.863,212.688v -0.535996" fill="none" stroke="#ff0000"/>
<path d="M368.347,212.152h 3.03171" fill="none" stroke="#ff0000"/>
<path d="M369.863,212.688v 0.535996" fill="none" stroke="#ff0000"/>
<path d="M368.347,213.224h 3.03171" fill="none" stroke="#ff0000"/>
<path d="M387.043,217.547v -0.544994" fill="none" stroke="#ff0000"/>
<path d="M385.527,217.002h 3.03171" fill="none" stroke="#ff0000"/>
<path d="M387.043,217.547v 0.544994" fill="none" stroke="#ff0000"/>
<path d="M385.527,218.092h 3.03171" fill="none" stroke="#ff0000"/>
<path d="M404.222,244.898v -0.507717" fill="none" stroke="#ff0000"/>
<path d="M402.706,244.39h 3.03171" fill="none" stroke="#ff0000"/>
<path d="M404.222,244.898v 0.507717" fill="none" stroke="#ff0000"/>
<path d="M402.706,245.405h 3.03171" fill="none" stroke="#ff0000"/>
<path d="M421.402,265.368v -0.493463" fill="none" stroke="#ff0000"/>
<path d="M419.886,264.875h 3.03171" fill="none" stroke="#ff0000"/>
<path d="M421.402,265.368v 0.493463" fill="none" stroke="#ff0000"/>
<path d="M419.886,265.862h 3.03171" fill="none" stroke="#ff0000"/>
<path d="M438.582,284.659v -0.475854" fill="none" stroke="#ff0000"/>
<path d="M437.066,284.184h 3.03171" fill="none" stroke="#ff0000"/>
<path d="M438.582,284.659v 0.475854" fill="none" stroke="#ff0000"/>
<path d="M437.066,285.135h 3.03171" fill="none" stroke="#ff0000"/>
<path d="M455.761,325.005v -0.420488" fill="none" stroke="#ff0000"/>
<path d="M454.245,324.584h 3.03171" fill="none" stroke="#ff0000"/>
<path d="M455.761,325.005v 0.420488" fill="none" stroke="#ff0000"/>
<path d="M454.245,325.425h 3.03171" fill="none" stroke="#ff0000"/>
<path d="M472.941,367.804v -0.367982" fill="none" stroke="#ff0000"/>
<path d="M471.425,367.436h 3.03171" fill="none" stroke="#ff0000"/>
<path d="M472.941,367.804v 0.367982" fill="none" stroke="#ff0000"/>
<path d="M471.425,368.172h 3.03171" fill="none" stroke="#ff0000"/>
<path d="M490.121,406.882v -0.311029" fill="none" stroke="#ff0000"/>
<path d="M488.605,406.571h 3.03171" fill="none" stroke="#ff0000"/>
<path d="M490.121,406.882v 0.311029" fill="none" stroke="#ff0000"/>
<path d="M488.605,407.193h 3.03171" fill="none" stroke="#ff0000"/>
<path d="M77.8085,361.569l 17.1797, -2.59688l 17.1797, -3.28951l 17.1797, -5.24546l 17.1797, -6.96825l 17.1797, -9.12321l 17.1797, -7.70771l 17.1797, -7.35944l 17.1797, -8.51545l 17.1797, -9.43343l 17.1797, -10.7689l 17.1797, -8.75543l 17.1797,
 -12.8615l 17.1797, -11.2704l 17.1797, -5.69128l 17.1797, -0.489719l 17.1797, -16.6231l 17.1797, -22.1808l 17.1797, 4.85914l 17.1797, 27.3501l 17.1797, 20.4706l 17.1797, 19.2912l 17.1797, 40.3452l 17.1797, 42.7997l 17.1797, 39.078" fill="none"
 stroke="#ff0000"/>
<g stroke="#ff0000" stroke-width="1" fill="#ff0000">
<circle cx="77.8085" cy="361.569" r="0.121268"/>
<circle cx="94.9882" cy="358.972" r="0.121268"/>
<circle cx="112.168" cy="355.682" r="0.121268"/>
<circle cx="129.348" cy="350.437" r="0.121268"/>
<circle cx="146.527" cy="343.469" r="0.121268"/>
<circle cx="163.707" cy="334.345" r="0.121268"/>
<circle cx="180.887" cy="326.638" r="0.121268"/>
<circle cx="198.066" cy="319.278" r="0.121268"/>
<circle cx="215.246" cy="310.763" r="0.121268"/>
<circle cx="232.426" cy="301.329" r="0.121268"/>
<circle cx="249.605" cy="290.56" r="0.121268"/>
<circle cx="266.785" cy="281.805" r="0.121268"/>
<circle cx="283.965" cy="268.944" r="0.121268"/>
<circle cx="301.144" cy="257.673" r="0.121268"/>
<circle cx="318.324" cy="251.982" r="0.121268"/>
<circle cx="335.504" cy="251.492" r="0.121268"/>
<circle cx="352.683" cy="234.869" r="0.121268"/>
<circle cx="369.863" cy="212.688" r="0.121268"/>
<circle cx="387.043" cy="217.547" r="0.121268"/>
<circle cx="404.222" cy="244.898" r="0.121268"/>
<circle cx="421.402" cy="265.368" r="0.121268"/>
<circle cx="438.582" cy="284.659" r="0.121268"/>
<circle cx="455.761" cy="325.005" r="0.121268"/>
<circle cx="472.941" cy="367.804" r="0.121268"/>
<circle cx="490.121" cy="406.882" r="0.121268"/>
</g>
<path d="M77.8085,376.887v -0.343332" fill="none" stroke="#00ff00"/>
<path d="M76.2927,376.543h 3.03171" fill="none" stroke="#00ff00"/>
<path d="M77.8085,376.887v 0.343332" fill="none" stroke="#00ff00"/>
<path d="M76.2927,377.23h 3.03171" fill="none" stroke="#00ff00"/>
<path d="M94.9882,374.134v -0.356214" fill="none" stroke="#00ff00"/>
<path d="M93.4723,373.777h 3.03171" fill="none" stroke="#00ff00"/>
<path d="M94.9882,374.134v 0.356214" fill="none" stroke="#00ff00"/>
<path d="M93.4723,374.49h 3.03171" fill="none" stroke="#00ff00"/>
<path d="M112.168,371.619v -0.362881" fill="none" stroke="#00ff00"/>
<path d="M110.652,371.256h 3.03171" fill="none" stroke="#00ff00"/>
<path d="M112.168,371.619v 0.362881" fill="none" stroke="#00ff00"/>
<path d="M110.652,371.982h 3.03171" fill="none" stroke="#00ff00"/>
<path d="M129.348,366.789v -0.363104" fill="none" stroke="#00ff00"/>
<path d="M127.832,366.426h 3.03171" fill="none" stroke="#00ff00"/>
<path d="M129.348,366.789v 0.363104" fill="none" stroke="#00ff00"/>
<path d="M127.832,367.152h 3.03171" fill="none" stroke="#00ff00"/>
<path d="M146.527,363.447v -0.366846" fill="none" stroke="#00ff00"/>
<path d="M145.011,363.08h 3.03171" fill="none" stroke="#00ff00"/>
<path d="M146.527,363.447v 0.366846" fill="none" stroke="#00ff00"/>
<path d="M145.011,363.813h 3.03171" fill="none" stroke="#00ff00"/>
<path d="M163.707,357.294v -0.378578" fill="none" stroke="#00ff00"/>
<path d="M162.191,356.915h 3.03171" fill="none" stroke="#00ff00"/>
<path d="M163.707,357.294v 0.378578" fill="none" stroke="#00ff00"/>
<path d="M162.191,357.672h 3.03171" fill="none" stroke="#00ff00"/>
<path d="M180.887,350.638v -0.402194" fill="none" stroke="#00ff00"/>
<path d="M179.371,350.236h 3.03171" fill="none" stroke="#00ff00"/>
<path d="M180.887,350.638v 0.402194" fill="none" stroke="#00ff00"/>
<path d="M179.371,351.04h 3.03171" fill="none" stroke="#00ff00"/>
<path d="M198.066,344.741v -0.409588" fill="none" stroke="#00ff00"/>
<path d="M196.55,344.331h 3.03171" fill="none" stroke="#00ff00"/>
<path d="M198.066,344.741v 0.409588" fill="none" stroke="#00ff00"/>
<path d="M196.55,345.15h 3.03171" fill="none" stroke="#00ff00"/>
<path d="M215.246,337.547v -0.407898" fill="none" stroke="#00ff00"/>
<path d="M213.73,337.139h 3.03171" fill="none" stroke="#00ff00"/>
<path d="M215.246,337.547v 0.407898" fill="none" stroke="#00ff00"/>
<path d="M213.73,337.955h 3.03171" fill="none" stroke="#00ff00"/>
<path d="M232.426,329.012v -0.411038" fill="none" stroke="#00ff00"/>
<path d="M230.91,328.601h 3.03171" fill="none" stroke="#00ff00"/>
<path d="M232.426,329.012v 0.411038" fill="none" stroke="#00ff00"/>
<path d="M230.91,329.423h 3.03171" fill="none" stroke="#00ff00"/>
<path d="M249.605,322.021v -0.438498" fill="none" stroke="#00ff00"/>
<path d="M248.089,321.583h 3.03171" fill="none" stroke="#00ff00"/>
<path d="M249.605,322.021v 0.438498" fill="none" stroke="#00ff00"/>
<path d="M248.089,322.46h 3.03171" fill="none" stroke="#00ff00"/>
<path d="M266.785,316.534v -0.443396" fill="none" stroke="#00ff00"/>
<path d="M265.269,316.091h 3.03171" fill="none" stroke="#00ff00"/>
<path d="M266.785,316.534v 0.443396" fill="none" stroke="#00ff00"/>
<path d="M265.269,316.977h 3.03171" fill="none" stroke="#00ff00"/>
<path d="M283.965,312.541v -0.434088" fill="none" stroke="#00ff00"/>
<path d="M282.449,312.107h 3.03171" fill="none" stroke="#00ff00"/>
<path d="M283.965,312.541v 0.434088" fill="none" stroke="#00ff00"/>
<path d="M282.449,312.975h 3.03171" fill="none" stroke="#00ff00"/>
<path d="M301.144,308.429v -0.446758" fill="none" stroke="#00ff00"/>
<path d="M299.628,307.983h 3.03171" fill="none" stroke="#00ff00"/>
<path d="M301.144,308.429v 0.446758" fill="none" stroke="#00ff00"/>
<path d="M299.628,308.876h 3.03171" fill="none" stroke="#00ff00"/>
<path d="M318.324,302.629v -0.449418" fill="none" stroke="#00ff00"/>
<path d="M316.808,302.179h 3.03171" fill="none" stroke="#00ff00"/>
<path d="M318.324,302.629v 0.449418" fill="none" stroke="#00ff00"/>
<path d="M316.808,303.078h 3.03171" fill="none" stroke="#00ff00"/>
<path d="M335.504,301.969v -0.447787" fill="none" stroke="#00ff00"/>
<path d="M333.988,301.522h 3.03171" fill="none" stroke="#00ff00"/>
<path d="M335.504,301.969v 0.447787" fill="none" stroke="#00ff00"/>
<path d="M333.988,302.417h 3.03171" fill="none" stroke="#00ff00"/>
<path d="M352.683,298.92v -0.455005" fill="none" stroke="#00ff00"/>
<path d="M351.167,298.465h 3.03171" fill="none" stroke="#00ff00"/>
<path d="M352.683,298.92v 0.455005" fill="none" stroke="#00ff00"/>
<path d="M351.167,299.375h 3.03171" fill="none" stroke="#00ff00"/>
<path d="M369.863,296.939v -0.467918" fill="none" stroke="#00ff00"/>
<path d="M368.347,296.472h 3.03171" fill="none" stroke="#00ff00"/>
<path d="M369.863,296.939v 0.467918" fill="none" stroke="#00ff00"/>
<path d="M368.347,297.407h 3.03171" fill="none" stroke="#00ff00"/>
<path d="M387.043,299.637v -0.455016" fill="none" stroke="#00ff00"/>
<path d="M385.527,299.182h 3.03171" fill="none" stroke="#00ff00"/>
<path d="M387.043,299.637v 0.455016" fill="none" stroke="#00ff00"/>
<path d="M385.527,300.092h 3.03171" fill="none" stroke="#00ff00"/>
<path d="M404.222,305.558v -0.448105" fill="none" stroke="#00ff00"/>
<path d="M402.706,305.11h 3.03171" fill="none" stroke="#00ff00"/>
<path d="M404.222,305.558v 0.448105" fill="none" stroke="#00ff00"/>
<path d="M402.706,306.006h 3.03171" fill="none" stroke="#00ff00"/>
<path d="M421.402,302.86v -0.449612" fill="none" stroke="#00ff00"/>
<path d="M419.886,302.41h 3.03171" fill="none" stroke="#00ff00"/>
<path d="M421.402,302.86v 0.449612" fill="none" stroke="#00ff00"/>
<path d="M419.886,303.31h 3.03171" fill="none" stroke="#00ff00"/>
<path d="M438.582,312.575v -0.432278" fill="none" stroke="#00ff00"/>
<path d="M437.066,312.143h 3.03171" fill="none" stroke="#00ff00"/>
<path d="M438.582,312.575v 0.432278" fill="none" stroke="#00ff00"/>
<path d="M437.066,313.008h 3.03171" fill="none" stroke="#00ff00"/>
<path d="M455.761,347.056v -0.39063" fill="none" stroke="#00ff00"/>
<path d="M454.245,346.665h 3.03171" fill="none" stroke="#00ff00"/>
<path d="M455.761,347.056v 0.39063" fill="none" stroke="#00ff00"/>
<path d="M454.245,347.446h 3.03171" fill="none" stroke="#00ff00"/>
<path d="M472.941,383.312v -0.340298" fill="none" stroke="#00ff00"/>
<path d="M471.425,382.972h 3.03171" fill="none" stroke="#00ff00"/>
<path d="M472.941,383.312v 0.340298" fill="none" stroke="#00ff00"/>
<path d="M471.425,383.653h 3.03171" fill="none" stroke="#00ff00"/>
<path d="M490.121,423.165v -0.275505" fill="none" stroke="#00ff00"/>
<path d="M488.605,422.89h 3.03171" fill="none" stroke="#00ff00"/>
<path d="M490.121,423.165v 0.275505" fill="none" stroke="#00ff00"/>
<path d="M488.605,423.441h 3.03171" fill="none" stroke="#00ff00"/>
<path d="M77.8085,376.887l 17.1797, -2.75296l 17.1797, -2.51493l 17.1797, -4.82988l 17.1797, -3.34219l 17.1797, -6.1527l 17.1797, -6.65608l 17.1797, -5.89711l 17.1797, -7.1936l 17.1797, -8.53496l 17.1797, -6.99069l 17.1797, -5.48739l 17.1797,
 -3.99287l 17.1797, -4.11188l 17.1797, -5.80054l 17.1797, -0.659462l 17.1797, -3.04953l 17.1797, -1.98034l 17.1797, 2.69736l 17.1797, 5.9215l 17.1797, -2.69833l 17.1797, 9.71536l 17.1797, 34.4803l 17.1797, 36.2568l 17.1797, 39.8526" fill="none"
 stroke="#00ff00"/>
<g stroke="#00ff00" stroke-width="1" fill="#00ff00">
<circle cx="77.8085" cy="376.887" r="0.121268"/>
<circle cx="94.9882" cy="374.134" r="0.121268"/>
<circle cx="112.168" cy="371.619" r="0.121268"/>
<circle cx="129.348" cy="366.789" r="0.121268"/>
<circle cx="146.527" cy="363.447" r="0.121268"/>
<circle cx="163.707" cy="357.294" r="0.121268"/>
<circle cx="180.887" cy="350.638" r="0.121268"/>
<circle cx="198.066" cy="344.741" r="0.121268"/>
<circle cx="215.246" cy="337.547" r="0.121268"/>
<circle cx="232.426" cy="329.012" r="0.121268"/>
<circle cx="249.605" cy="322.021" r="0.121268"/>
<circle cx="266.785" cy="316.534" r="0.121268"/>
<circle cx="283.965" cy="312.541" r="0.121268"/>
<circle cx="301.144" cy="308.429" r="0.121268"/>
<circle cx="318.324" cy="302.629" r="0.121268"/>
<circle cx="335.504" cy="301.969" r="0.121268"/>
<circle cx="352.683" cy="298.92" r="0.121268"/>
<circle cx="369.863" cy="296.939" r="0.121268"/>
<circle cx="387.043" cy="299.637" r="0.121268"/>
<circle cx="404.222" cy="305.558" r="0.121268"/>
<circle cx="421.402" cy="302.86" r="0.121268"/>
<circle cx="438.582" cy="312.575" r="0.121268"/>
<circle cx="455.761" cy="347.056" r="0.121268"/>
<circle cx="472.941" cy="383.312" r="0.121268"/>
<circle cx="490.121" cy="423.165" r="0.121268"/>
</g>
<rect x="57.1929" y="54.8739" width="198.425" height="65.8487" fill="white"/>
<path d="M57.1929,120.723h 198.425" fill="none" stroke="black"/>
<path d="M255.618,120.723v -65.8487" fill="none" stroke="black"/>
<path d="M255.618,54.8739h -198.425" fill="none" stroke="black"/>
<path d="M57.1929,54.8739v 65.8487" fill="none" stroke="black"/>
<text xml:space="preserve" x="106.61" y="70.4872" fill="black" font-size="13.7116" font-family="Helvetica">TYPEA</text>
<path d="M64.6339,65.8487h 34.7244" fill="none" stroke="black"/>
<g stroke="black" stroke-width="1" fill="black">
<circle cx="81.9961" cy="65.8487" r="0.121268"/>
</g>
<text xml:space="preserve" x="106.61" y="92.4671" fill="black" font-size="13.7116" font-family="Helvetica">TYPEB</text>
<path d="M64.6339,87.7982h 34.7244" fill="none" stroke="#ff0000"/>
<g stroke="#ff0000" stroke-width="1" fill="#ff0000">
<circle cx="81.9961" cy="87.7982" r="0.121268"/>
</g>
<text xml:space="preserve" x="106.61" y="114.447" fill="black" font-size="13.7116" font-family="Helvetica">TYPEC</text>
<path d="M64.6339,109.748h 34.7244" fill="none" stroke="#00ff00"/>
<g stroke="#00ff00" stroke-width="1" fill="#00ff00">
<circle cx="81.9961" cy="109.748" r="0.121268"/>
</g>
<text xml:space="preserve" x="103.578" y="23.4957" fill="black" font-size="14.181" font-family="Helvetica">1000 MeV/c pion incident at 40 degrees(DAVIS LUT model)</text></svg>
