<?xml version="1.0" standalone="no"?>
<svg width="567.429" height="549.239" viewBox="0 0 567.429 549.239" xmlns="http://www.w3.org/2000/svg" shape-rendering="crispEdges">
<title>
anal_kaon.svg
</title>
<desc>
Creator: ROOT Version 6.16/00
CreationDate: Mon Nov 18 12:52:06 2019</desc>
<defs>
</defs>
<rect x="0.5" y="0" width="566.929" height="548.739" fill="white"/>
<rect x="68.5315" y="54.8739" width="442.205" height="438.991" fill="white"/>
<rect x="68.5315" y="54.8739" width="442.205" height="438.991" fill="none" stroke="black"/>
<path d="M68.5315,493.865h 442.205" fill="none" stroke="black"/>
<path d="M68.5315,54.8739v 438.991" fill="none" stroke="black" stroke-dasharray=" 1, 2"/>
<path d="M105.382,54.8739v 438.991" fill="none" stroke="black" stroke-dasharray=" 1, 2"/>
<path d="M142.232,54.8739v 438.991" fill="none" stroke="black" stroke-dasharray=" 1, 2"/>
<path d="M179.083,54.8739v 438.991" fill="none" stroke="black" stroke-dasharray=" 1, 2"/>
<path d="M215.933,54.8739v 438.991" fill="none" stroke="black" stroke-dasharray=" 1, 2"/>
<path d="M252.783,54.8739v 438.991" fill="none" stroke="black" stroke-dasharray=" 1, 2"/>
<path d="M289.634,54.8739v 438.991" fill="none" stroke="black" stroke-dasharray=" 1, 2"/>
<path d="M326.484,54.8739v 438.991" fill="none" stroke="black" stroke-dasharray=" 1, 2"/>
<path d="M363.335,54.8739v 438.991" fill="none" stroke="black" stroke-dasharray=" 1, 2"/>
<path d="M400.185,54.8739v 438.991" fill="none" stroke="black" stroke-dasharray=" 1, 2"/>
<path d="M437.035,54.8739v 438.991" fill="none" stroke="black" stroke-dasharray=" 1, 2"/>
<path d="M473.886,54.8739v 438.991" fill="none" stroke="black" stroke-dasharray=" 1, 2"/>
<path d="M510.736,54.8739v 438.991" fill="none" stroke="black" stroke-dasharray=" 1, 2"/>
<path d="M68.5315,493.865v -438.991" fill="none" stroke="black"/>
<path d="M510.736,493.865h -442.205" fill="none" stroke="black" stroke-dasharray=" 1, 2"/>
<path d="M510.736,420.7h -442.205" fill="none" stroke="black" stroke-dasharray=" 1, 2"/>
<path d="M510.736,347.535h -442.205" fill="none" stroke="black" stroke-dasharray=" 1, 2"/>
<path d="M510.736,274.369h -442.205" fill="none" stroke="black" stroke-dasharray=" 1, 2"/>
<path d="M510.736,201.204h -442.205" fill="none" stroke="black" stroke-dasharray=" 1, 2"/>
<path d="M510.736,128.039h -442.205" fill="none" stroke="black" stroke-dasharray=" 1, 2"/>
<path d="M510.736,54.8739h -442.205" fill="none" stroke="black" stroke-dasharray=" 1, 2"/>
<path d="M68.5315,493.865h 442.205" fill="none" stroke="black"/>
<path d="M68.5315,481.025v 12.8405" fill="none" stroke="black"/>
<path d="M77.7441,487.445v 6.42025" fill="none" stroke="black"/>
<path d="M86.9567,487.445v 6.42025" fill="none" stroke="black"/>
<path d="M96.1693,487.445v 6.42025" fill="none" stroke="black"/>
<path d="M105.382,481.025v 12.8405" fill="none" stroke="black"/>
<path d="M114.594,487.445v 6.42025" fill="none" stroke="black"/>
<path d="M123.807,487.445v 6.42025" fill="none" stroke="black"/>
<path d="M133.02,487.445v 6.42025" fill="none" stroke="black"/>
<path d="M142.232,481.025v 12.8405" fill="none" stroke="black"/>
<path d="M151.445,487.445v 6.42025" fill="none" stroke="black"/>
<path d="M160.657,487.445v 6.42025" fill="none" stroke="black"/>
<path d="M169.87,487.445v 6.42025" fill="none" stroke="black"/>
<path d="M179.083,481.025v 12.8405" fill="none" stroke="black"/>
<path d="M188.295,487.445v 6.42025" fill="none" stroke="black"/>
<path d="M197.508,487.445v 6.42025" fill="none" stroke="black"/>
<path d="M206.72,487.445v 6.42025" fill="none" stroke="black"/>
<path d="M215.933,481.025v 12.8405" fill="none" stroke="black"/>
<path d="M225.146,487.445v 6.42025" fill="none" stroke="black"/>
<path d="M234.358,487.445v 6.42025" fill="none" stroke="black"/>
<path d="M243.571,487.445v 6.42025" fill="none" stroke="black"/>
<path d="M252.783,481.025v 12.8405" fill="none" stroke="black"/>
<path d="M261.996,487.445v 6.42025" fill="none" stroke="black"/>
<path d="M271.209,487.445v 6.42025" fill="none" stroke="black"/>
<path d="M280.421,487.445v 6.42025" fill="none" stroke="black"/>
<path d="M289.634,481.025v 12.8405" fill="none" stroke="black"/>
<path d="M298.846,487.445v 6.42025" fill="none" stroke="black"/>
<path d="M308.059,487.445v 6.42025" fill="none" stroke="black"/>
<path d="M317.272,487.445v 6.42025" fill="none" stroke="black"/>
<path d="M326.484,481.025v 12.8405" fill="none" stroke="black"/>
<path d="M335.697,487.445v 6.42025" fill="none" stroke="black"/>
<path d="M344.909,487.445v 6.42025" fill="none" stroke="black"/>
<path d="M354.122,487.445v 6.42025" fill="none" stroke="black"/>
<path d="M363.335,481.025v 12.8405" fill="none" stroke="black"/>
<path d="M372.547,487.445v 6.42025" fill="none" stroke="black"/>
<path d="M381.76,487.445v 6.42025" fill="none" stroke="black"/>
<path d="M390.972,487.445v 6.42025" fill="none" stroke="black"/>
<path d="M400.185,481.025v 12.8405" fill="none" stroke="black"/>
<path d="M409.398,487.445v 6.42025" fill="none" stroke="black"/>
<path d="M418.61,487.445v 6.42025" fill="none" stroke="black"/>
<path d="M427.823,487.445v 6.42025" fill="none" stroke="black"/>
<path d="M437.035,481.025v 12.8405" fill="none" stroke="black"/>
<path d="M446.248,487.445v 6.42025" fill="none" stroke="black"/>
<path d="M455.461,487.445v 6.42025" fill="none" stroke="black"/>
<path d="M464.673,487.445v 6.42025" fill="none" stroke="black"/>
<path d="M473.886,481.025v 12.8405" fill="none" stroke="black"/>
<path d="M483.098,487.445v 6.42025" fill="none" stroke="black"/>
<path d="M492.311,487.445v 6.42025" fill="none" stroke="black"/>
<path d="M501.524,487.445v 6.42025" fill="none" stroke="black"/>
<path d="M510.736,481.025v 12.8405" fill="none" stroke="black"/>
<text xml:space="preserve" x="62.65" y="511.601" fill="black" font-size="18.1201" font-family="Helvetica">0</text>
<text xml:space="preserve" x="95.2408" y="511.601" fill="black" font-size="18.1201" font-family="Helvetica">20</text>
<text xml:space="preserve" x="132.379" y="511.601" fill="black" font-size="18.1201" font-family="Helvetica">40</text>
<text xml:space="preserve" x="168.76" y="511.601" fill="black" font-size="18.1201" font-family="Helvetica">60</text>
<text xml:space="preserve" x="205.898" y="511.601" fill="black" font-size="18.1201" font-family="Helvetica">80</text>
<text xml:space="preserve" x="236.973" y="511.601" fill="black" font-size="18.1201" font-family="Helvetica">100</text>
<text xml:space="preserve" x="274.112" y="511.601" fill="black" font-size="18.1201" font-family="Helvetica">120</text>
<text xml:space="preserve" x="311.25" y="511.601" fill="black" font-size="18.1201" font-family="Helvetica">140</text>
<text xml:space="preserve" x="347.63" y="511.601" fill="black" font-size="18.1201" font-family="Helvetica">160</text>
<text xml:space="preserve" x="384.769" y="511.601" fill="black" font-size="18.1201" font-family="Helvetica">180</text>
<text xml:space="preserve" x="421.149" y="511.601" fill="black" font-size="18.1201" font-family="Helvetica">200</text>
<text xml:space="preserve" x="458.288" y="511.601" fill="black" font-size="18.1201" font-family="Helvetica">220</text>
<text xml:space="preserve" x="495.426" y="511.601" fill="black" font-size="18.1201" font-family="Helvetica">240</text>
<text xml:space="preserve" x="338.535" y="529.791" fill="black" font-size="18.1201" font-family="Helvetica">incident position(mm)</text>
<path d="M68.5315,493.865v -438.991" fill="none" stroke="black"/>
<path d="M82.1378,493.865h -13.6063" fill="none" stroke="black"/>
<path d="M75.3346,479.232h -6.80315" fill="none" stroke="black"/>
<path d="M75.3346,464.599h -6.80315" fill="none" stroke="black"/>
<path d="M75.3346,449.966h -6.80315" fill="none" stroke="black"/>
<path d="M75.3346,435.333h -6.80315" fill="none" stroke="black"/>
<path d="M82.1378,420.7h -13.6063" fill="none" stroke="black"/>
<path d="M75.3346,406.067h -6.80315" fill="none" stroke="black"/>
<path d="M75.3346,391.434h -6.80315" fill="none" stroke="black"/>
<path d="M75.3346,376.801h -6.80315" fill="none" stroke="black"/>
<path d="M75.3346,362.168h -6.80315" fill="none" stroke="black"/>
<path d="M82.1378,347.535h -13.6063" fill="none" stroke="black"/>
<path d="M75.3346,332.902h -6.80315" fill="none" stroke="black"/>
<path d="M75.3346,318.269h -6.80315" fill="none" stroke="black"/>
<path d="M75.3346,303.636h -6.80315" fill="none" stroke="black"/>
<path d="M75.3346,289.003h -6.80315" fill="none" stroke="black"/>
<path d="M82.1378,274.369h -13.6063" fill="none" stroke="black"/>
<path d="M75.3346,259.736h -6.80315" fill="none" stroke="black"/>
<path d="M75.3346,245.103h -6.80315" fill="none" stroke="black"/>
<path d="M75.3346,230.47h -6.80315" fill="none" stroke="black"/>
<path d="M75.3346,215.837h -6.80315" fill="none" stroke="black"/>
<path d="M82.1378,201.204h -13.6063" fill="none" stroke="black"/>
<path d="M75.3346,186.571h -6.80315" fill="none" stroke="black"/>
<path d="M75.3346,171.938h -6.80315" fill="none" stroke="black"/>
<path d="M75.3346,157.305h -6.80315" fill="none" stroke="black"/>
<path d="M75.3346,142.672h -6.80315" fill="none" stroke="black"/>
<path d="M82.1378,128.039h -13.6063" fill="none" stroke="black"/>
<path d="M75.3346,113.406h -6.80315" fill="none" stroke="black"/>
<path d="M75.3346,98.773h -6.80315" fill="none" stroke="black"/>
<path d="M75.3346,84.14h -6.80315" fill="none" stroke="black"/>
<path d="M75.3346,69.5069h -6.80315" fill="none" stroke="black"/>
<path d="M82.1378,54.8739h -13.6063" fill="none" stroke="black"/>
<text xml:space="preserve" x="55.8286" y="500.232" fill="black" font-size="18.1201" font-family="Helvetica">0</text>
<text xml:space="preserve" x="40.6701" y="427.471" fill="black" font-size="18.1201" font-family="Helvetica">0.5</text>
<text xml:space="preserve" x="58.8604" y="354.71" fill="black" font-size="18.1201" font-family="Helvetica">1</text>
<text xml:space="preserve" x="40.6701" y="281.191" fill="black" font-size="18.1201" font-family="Helvetica">1.5</text>
<text xml:space="preserve" x="55.8286" y="208.43" fill="black" font-size="18.1201" font-family="Helvetica">2</text>
<text xml:space="preserve" x="40.6701" y="134.153" fill="black" font-size="18.1201" font-family="Helvetica">2.5</text>
<text xml:space="preserve" x="55.8286" y="61.3921" fill="black" font-size="18.1201" font-family="Helvetica">3</text>
<g transform="rotate(-90,28.5433,87.9195)">
<text xml:space="preserve" x="28.5433" y="87.9195" fill="black" font-size="18.1201" font-family="Helvetica">Npe</text>
</g>
<text xml:space="preserve" x="106.61" y="25.7695" fill="black" font-size="26.0331" font-family="Helvetica">incident at 40 degrees(TYPEA)</text>
<path d="M68.5315,342.267v -2.57396" fill="none" stroke="black"/>
<path d="M68.5315,339.693h 1.51585" fill="none" stroke="black"/>
<path d="M68.5315,342.267v 2.57396" fill="none" stroke="black"/>
<path d="M68.5315,344.841h 1.51585" fill="none" stroke="black"/>
<path d="M86.9567,339.252v -2.79372" fill="none" stroke="black"/>
<path d="M85.4408,336.459h 3.03171" fill="none" stroke="black"/>
<path d="M86.9567,339.252v 2.79372" fill="none" stroke="black"/>
<path d="M85.4408,342.046h 3.03171" fill="none" stroke="black"/>
<path d="M105.382,328.702v -3.29075" fill="none" stroke="black"/>
<path d="M103.866,325.411h 3.03171" fill="none" stroke="black"/>
<path d="M105.382,328.702v 3.29075" fill="none" stroke="black"/>
<path d="M103.866,331.993h 3.03171" fill="none" stroke="black"/>
<path d="M123.807,328.658v -3.1612" fill="none" stroke="black"/>
<path d="M122.291,325.497h 3.03171" fill="none" stroke="black"/>
<path d="M123.807,328.658v 3.1612" fill="none" stroke="black"/>
<path d="M122.291,331.819h 3.03171" fill="none" stroke="black"/>
<path d="M142.232,325.161v -3.30724" fill="none" stroke="black"/>
<path d="M140.716,321.853h 3.03171" fill="none" stroke="black"/>
<path d="M142.232,325.161v 3.30724" fill="none" stroke="black"/>
<path d="M140.716,328.468h 3.03171" fill="none" stroke="black"/>
<path d="M160.657,323.185v -3.11588" fill="none" stroke="black"/>
<path d="M159.142,320.069h 3.03171" fill="none" stroke="black"/>
<path d="M160.657,323.185v 3.11588" fill="none" stroke="black"/>
<path d="M159.142,326.301h 3.03171" fill="none" stroke="black"/>
<path d="M179.083,315.152v -3.42911" fill="none" stroke="black"/>
<path d="M177.567,311.723h 3.03171" fill="none" stroke="black"/>
<path d="M179.083,315.152v 3.42911" fill="none" stroke="black"/>
<path d="M177.567,318.581h 3.03171" fill="none" stroke="black"/>
<path d="M197.508,310.82v -3.49639" fill="none" stroke="black"/>
<path d="M195.992,307.324h 3.03171" fill="none" stroke="black"/>
<path d="M197.508,310.82v 3.49639" fill="none" stroke="black"/>
<path d="M195.992,314.317h 3.03171" fill="none" stroke="black"/>
<path d="M215.933,309.694v -3.61306" fill="none" stroke="black"/>
<path d="M214.417,306.081h 3.03171" fill="none" stroke="black"/>
<path d="M215.933,309.694v 3.61306" fill="none" stroke="black"/>
<path d="M214.417,313.307h 3.03171" fill="none" stroke="black"/>
<path d="M234.358,305.231v -3.6114" fill="none" stroke="black"/>
<path d="M232.842,301.619h 3.03171" fill="none" stroke="black"/>
<path d="M234.358,305.231v 3.6114" fill="none" stroke="black"/>
<path d="M232.842,308.842h 3.03171" fill="none" stroke="black"/>
<path d="M252.783,298.66v -3.54737" fill="none" stroke="black"/>
<path d="M251.268,295.113h 3.03171" fill="none" stroke="black"/>
<path d="M252.783,298.66v 3.54737" fill="none" stroke="black"/>
<path d="M251.268,302.208h 3.03171" fill="none" stroke="black"/>
<path d="M271.209,296.86v -3.66258" fill="none" stroke="black"/>
<path d="M269.693,293.198h 3.03171" fill="none" stroke="black"/>
<path d="M271.209,296.86v 3.66258" fill="none" stroke="black"/>
<path d="M269.693,300.523h 3.03171" fill="none" stroke="black"/>
<path d="M289.634,290.861v -3.66466" fill="none" stroke="black"/>
<path d="M288.118,287.196h 3.03171" fill="none" stroke="black"/>
<path d="M289.634,290.861v 3.66466" fill="none" stroke="black"/>
<path d="M288.118,294.526h 3.03171" fill="none" stroke="black"/>
<path d="M308.059,280.003v -3.81654" fill="none" stroke="black"/>
<path d="M306.543,276.187h 3.03171" fill="none" stroke="black"/>
<path d="M308.059,280.003v 3.81654" fill="none" stroke="black"/>
<path d="M306.543,283.82h 3.03171" fill="none" stroke="black"/>
<path d="M326.484,277.047v -3.91183" fill="none" stroke="black"/>
<path d="M324.968,273.135h 3.03171" fill="none" stroke="black"/>
<path d="M326.484,277.047v 3.91183" fill="none" stroke="black"/>
<path d="M324.968,280.959h 3.03171" fill="none" stroke="black"/>
<path d="M344.909,273.755v -3.8681" fill="none" stroke="black"/>
<path d="M343.394,269.887h 3.03171" fill="none" stroke="black"/>
<path d="M344.909,273.755v 3.8681" fill="none" stroke="black"/>
<path d="M343.394,277.623h 3.03171" fill="none" stroke="black"/>
<path d="M363.335,258.449v -4.13553" fill="none" stroke="black"/>
<path d="M361.819,254.313h 3.03171" fill="none" stroke="black"/>
<path d="M363.335,258.449v 4.13553" fill="none" stroke="black"/>
<path d="M361.819,262.584h 3.03171" fill="none" stroke="black"/>
<path d="M381.76,255.068v -4.23317" fill="none" stroke="black"/>
<path d="M380.244,250.835h 3.03171" fill="none" stroke="black"/>
<path d="M381.76,255.068v 4.23317" fill="none" stroke="black"/>
<path d="M380.244,259.302h 3.03171" fill="none" stroke="black"/>
<path d="M400.185,238.84v -4.33001" fill="none" stroke="black"/>
<path d="M398.669,234.51h 3.03171" fill="none" stroke="black"/>
<path d="M400.185,238.84v 4.33001" fill="none" stroke="black"/>
<path d="M398.669,243.17h 3.03171" fill="none" stroke="black"/>
<path d="M418.61,313.118v -4.18425" fill="none" stroke="black"/>
<path d="M417.094,308.934h 3.03171" fill="none" stroke="black"/>
<path d="M418.61,313.118v 4.18425" fill="none" stroke="black"/>
<path d="M417.094,317.302h 3.03171" fill="none" stroke="black"/>
<path d="M437.035,313.875v -3.61673" fill="none" stroke="black"/>
<path d="M435.52,310.259h 3.03171" fill="none" stroke="black"/>
<path d="M437.035,313.875v 3.61673" fill="none" stroke="black"/>
<path d="M435.52,317.492h 3.03171" fill="none" stroke="black"/>
<path d="M455.461,306.309v -3.57649" fill="none" stroke="black"/>
<path d="M453.945,302.733h 3.03171" fill="none" stroke="black"/>
<path d="M455.461,306.309v 3.57649" fill="none" stroke="black"/>
<path d="M453.945,309.886h 3.03171" fill="none" stroke="black"/>
<path d="M473.886,296.568v -3.82155" fill="none" stroke="black"/>
<path d="M472.37,292.746h 3.03171" fill="none" stroke="black"/>
<path d="M473.886,296.568v 3.82155" fill="none" stroke="black"/>
<path d="M472.37,300.389h 3.03171" fill="none" stroke="black"/>
<path d="M492.311,301.626v -3.10266" fill="none" stroke="black"/>
<path d="M490.795,298.524h 3.03171" fill="none" stroke="black"/>
<path d="M492.311,301.626v 3.10266" fill="none" stroke="black"/>
<path d="M490.795,304.729h 3.03171" fill="none" stroke="black"/>
<path d="M510.736,292.236v -2.78062" fill="none" stroke="black"/>
<path d="M509.22,289.456h 1.51585" fill="none" stroke="black"/>
<path d="M510.736,292.236v 2.78062" fill="none" stroke="black"/>
<path d="M509.22,295.017h 1.51585" fill="none" stroke="black"/>
<path d="M68.5315,342.267l 18.4252, -3.01441l 18.4252, -10.5504l 18.4252, -0.0438991l 18.4252, -3.4973l 18.4252, -1.97546l 18.4252, -8.03354l 18.4252, -4.33138l 18.4252, -1.12674l 18.4252, -4.46308l 18.4252, -6.57023l 18.4252, -1.79986l 18.4252,
 -5.99955l 18.4252, -10.8577l 18.4252, -2.95587l 18.4252, -3.29243l 18.4252, -15.3062l 18.4252, -3.38023l 18.4252, -16.228l 18.4252, 74.2773l 18.4252, 0.757552l 18.4252, -7.56604l 18.4252, -9.74148l 18.4252, 5.05844l 18.4252, -9.38982" fill="none"
 stroke="black"/>
<g stroke="black" stroke-width="1" fill="black">
<circle cx="68.5315" cy="342.267" r="0.121268"/>
<circle cx="86.9567" cy="339.252" r="0.121268"/>
<circle cx="105.382" cy="328.702" r="0.121268"/>
<circle cx="123.807" cy="328.658" r="0.121268"/>
<circle cx="142.232" cy="325.161" r="0.121268"/>
<circle cx="160.657" cy="323.185" r="0.121268"/>
<circle cx="179.083" cy="315.152" r="0.121268"/>
<circle cx="197.508" cy="310.82" r="0.121268"/>
<circle cx="215.933" cy="309.694" r="0.121268"/>
<circle cx="234.358" cy="305.231" r="0.121268"/>
<circle cx="252.783" cy="298.66" r="0.121268"/>
<circle cx="271.209" cy="296.86" r="0.121268"/>
<circle cx="289.634" cy="290.861" r="0.121268"/>
<circle cx="308.059" cy="280.003" r="0.121268"/>
<circle cx="326.484" cy="277.047" r="0.121268"/>
<circle cx="344.909" cy="273.755" r="0.121268"/>
<circle cx="363.335" cy="258.449" r="0.121268"/>
<circle cx="381.76" cy="255.068" r="0.121268"/>
<circle cx="400.185" cy="238.84" r="0.121268"/>
<circle cx="418.61" cy="313.118" r="0.121268"/>
<circle cx="437.035" cy="313.875" r="0.121268"/>
<circle cx="455.461" cy="306.309" r="0.121268"/>
<circle cx="473.886" cy="296.568" r="0.121268"/>
<circle cx="492.311" cy="301.626" r="0.121268"/>
<circle cx="510.736" cy="292.236" r="0.121268"/>
</g>
<path d="M68.5315,175.845v -2.24372" fill="none" stroke="#ff0000"/>
<path d="M68.5315,173.602h 1.51585" fill="none" stroke="#ff0000"/>
<path d="M68.5315,175.845v 2.24372" fill="none" stroke="#ff0000"/>
<path d="M68.5315,178.089h 1.51585" fill="none" stroke="#ff0000"/>
<path d="M86.9567,175.918v -2.20015" fill="none" stroke="#ff0000"/>
<path d="M85.4408,173.718h 3.03171" fill="none" stroke="#ff0000"/>
<path d="M86.9567,175.918v 2.20015" fill="none" stroke="#ff0000"/>
<path d="M85.4408,178.119h 3.03171" fill="none" stroke="#ff0000"/>
<path d="M105.382,175.172v -2.29166" fill="none" stroke="#ff0000"/>
<path d="M103.866,172.88h 3.03171" fill="none" stroke="#ff0000"/>
<path d="M105.382,175.172v 2.29166" fill="none" stroke="#ff0000"/>
<path d="M103.866,177.464h 3.03171" fill="none" stroke="#ff0000"/>
<path d="M123.807,176.95v -2.23198" fill="none" stroke="#ff0000"/>
<path d="M122.291,174.718h 3.03171" fill="none" stroke="#ff0000"/>
<path d="M123.807,176.95v 2.23198" fill="none" stroke="#ff0000"/>
<path d="M122.291,179.182h 3.03171" fill="none" stroke="#ff0000"/>
<path d="M142.232,178.515v -2.24219" fill="none" stroke="#ff0000"/>
<path d="M140.716,176.272h 3.03171" fill="none" stroke="#ff0000"/>
<path d="M142.232,178.515v 2.24219" fill="none" stroke="#ff0000"/>
<path d="M140.716,180.757h 3.03171" fill="none" stroke="#ff0000"/>
<path d="M160.657,185.43v -2.15157" fill="none" stroke="#ff0000"/>
<path d="M159.142,183.278h 3.03171" fill="none" stroke="#ff0000"/>
<path d="M160.657,185.43v 2.15157" fill="none" stroke="#ff0000"/>
<path d="M159.142,187.581h 3.03171" fill="none" stroke="#ff0000"/>
<path d="M179.083,181.135v -2.22851" fill="none" stroke="#ff0000"/>
<path d="M177.567,178.907h 3.03171" fill="none" stroke="#ff0000"/>
<path d="M179.083,181.135v 2.22851" fill="none" stroke="#ff0000"/>
<path d="M177.567,183.364h 3.03171" fill="none" stroke="#ff0000"/>
<path d="M197.508,184.025v -2.18611" fill="none" stroke="#ff0000"/>
<path d="M195.992,181.839h 3.03171" fill="none" stroke="#ff0000"/>
<path d="M197.508,184.025v 2.18611" fill="none" stroke="#ff0000"/>
<path d="M195.992,186.211h 3.03171" fill="none" stroke="#ff0000"/>
<path d="M215.933,186.798v -2.25215" fill="none" stroke="#ff0000"/>
<path d="M214.417,184.546h 3.03171" fill="none" stroke="#ff0000"/>
<path d="M215.933,186.798v 2.25215" fill="none" stroke="#ff0000"/>
<path d="M214.417,189.05h 3.03171" fill="none" stroke="#ff0000"/>
<path d="M234.358,182.723v -2.30389" fill="none" stroke="#ff0000"/>
<path d="M232.842,180.419h 3.03171" fill="none" stroke="#ff0000"/>
<path d="M234.358,182.723v 2.30389" fill="none" stroke="#ff0000"/>
<path d="M232.842,185.027h 3.03171" fill="none" stroke="#ff0000"/>
<path d="M252.783,184.574v -2.12485" fill="none" stroke="#ff0000"/>
<path d="M251.268,182.449h 3.03171" fill="none" stroke="#ff0000"/>
<path d="M252.783,184.574v 2.12485" fill="none" stroke="#ff0000"/>
<path d="M251.268,186.699h 3.03171" fill="none" stroke="#ff0000"/>
<path d="M271.209,183.454v -2.1855" fill="none" stroke="#ff0000"/>
<path d="M269.693,181.268h 3.03171" fill="none" stroke="#ff0000"/>
<path d="M271.209,183.454v 2.1855" fill="none" stroke="#ff0000"/>
<path d="M269.693,185.639h 3.03171" fill="none" stroke="#ff0000"/>
<path d="M289.634,184.237v -2.19318" fill="none" stroke="#ff0000"/>
<path d="M288.118,182.044h 3.03171" fill="none" stroke="#ff0000"/>
<path d="M289.634,184.237v 2.19318" fill="none" stroke="#ff0000"/>
<path d="M288.118,186.43h 3.03171" fill="none" stroke="#ff0000"/>
<path d="M308.059,182.957v -2.25017" fill="none" stroke="#ff0000"/>
<path d="M306.543,180.707h 3.03171" fill="none" stroke="#ff0000"/>
<path d="M308.059,182.957v 2.25017" fill="none" stroke="#ff0000"/>
<path d="M306.543,185.207h 3.03171" fill="none" stroke="#ff0000"/>
<path d="M326.484,184.435v -2.18502" fill="none" stroke="#ff0000"/>
<path d="M324.968,182.25h 3.03171" fill="none" stroke="#ff0000"/>
<path d="M326.484,184.435v 2.18502" fill="none" stroke="#ff0000"/>
<path d="M324.968,186.62h 3.03171" fill="none" stroke="#ff0000"/>
<path d="M344.909,185.964v -2.15799" fill="none" stroke="#ff0000"/>
<path d="M343.394,183.806h 3.03171" fill="none" stroke="#ff0000"/>
<path d="M344.909,185.964v 2.15799" fill="none" stroke="#ff0000"/>
<path d="M343.394,188.122h 3.03171" fill="none" stroke="#ff0000"/>
<path d="M363.335,185.781v -2.18064" fill="none" stroke="#ff0000"/>
<path d="M361.819,183.6h 3.03171" fill="none" stroke="#ff0000"/>
<path d="M363.335,185.781v 2.18064" fill="none" stroke="#ff0000"/>
<path d="M361.819,187.962h 3.03171" fill="none" stroke="#ff0000"/>
<path d="M381.76,180.33v -2.23464" fill="none" stroke="#ff0000"/>
<path d="M380.244,178.096h 3.03171" fill="none" stroke="#ff0000"/>
<path d="M381.76,180.33v 2.23464" fill="none" stroke="#ff0000"/>
<path d="M380.244,182.565h 3.03171" fill="none" stroke="#ff0000"/>
<path d="M400.185,176.306v -2.23225" fill="none" stroke="#ff0000"/>
<path d="M398.669,174.074h 3.03171" fill="none" stroke="#ff0000"/>
<path d="M400.185,176.306v 2.23225" fill="none" stroke="#ff0000"/>
<path d="M398.669,178.538h 3.03171" fill="none" stroke="#ff0000"/>
<path d="M418.61,266.299v -1.85313" fill="none" stroke="#ff0000"/>
<path d="M417.094,264.446h 3.03171" fill="none" stroke="#ff0000"/>
<path d="M418.61,266.299v 1.85313" fill="none" stroke="#ff0000"/>
<path d="M417.094,268.152h 3.03171" fill="none" stroke="#ff0000"/>
<path d="M437.035,261.492v -1.94001" fill="none" stroke="#ff0000"/>
<path d="M435.52,259.552h 3.03171" fill="none" stroke="#ff0000"/>
<path d="M437.035,261.492v 1.94001" fill="none" stroke="#ff0000"/>
<path d="M435.52,263.432h 3.03171" fill="none" stroke="#ff0000"/>
<path d="M455.461,256.473v -2.03976" fill="none" stroke="#ff0000"/>
<path d="M453.945,254.434h 3.03171" fill="none" stroke="#ff0000"/>
<path d="M455.461,256.473v 2.03976" fill="none" stroke="#ff0000"/>
<path d="M453.945,258.513h 3.03171" fill="none" stroke="#ff0000"/>
<path d="M473.886,252.632v -1.98714" fill="none" stroke="#ff0000"/>
<path d="M472.37,250.645h 3.03171" fill="none" stroke="#ff0000"/>
<path d="M473.886,252.632v 1.98714" fill="none" stroke="#ff0000"/>
<path d="M472.37,254.619h 3.03171" fill="none" stroke="#ff0000"/>
<path d="M492.311,240.787v -1.96631" fill="none" stroke="#ff0000"/>
<path d="M490.795,238.82h 3.03171" fill="none" stroke="#ff0000"/>
<path d="M492.311,240.787v 1.96631" fill="none" stroke="#ff0000"/>
<path d="M490.795,242.753h 3.03171" fill="none" stroke="#ff0000"/>
<path d="M510.736,235.403v -1.96564" fill="none" stroke="#ff0000"/>
<path d="M509.22,233.438h 1.51585" fill="none" stroke="#ff0000"/>
<path d="M510.736,235.403v 1.96564" fill="none" stroke="#ff0000"/>
<path d="M509.22,237.369h 1.51585" fill="none" stroke="#ff0000"/>
<path d="M68.5315,175.845l 18.4252, 0.0731652l 18.4252, -0.746285l 18.4252, 1.77791l 18.4252, 1.5646l 18.4252, 6.91524l 18.4252, -4.2948l 18.4252, 2.89002l 18.4252, 2.77296l 18.4252, -4.0753l 18.4252, 1.85108l 18.4252, -1.12031l 18.4252, 0.783755l
 18.4252, -1.28039l 18.4252, 1.47794l 18.4252, 1.52915l 18.4252, -0.182913l 18.4252, -5.45081l 18.4252, -4.02409l 18.4252, 89.9932l 18.4252, -4.80695l 18.4252, -5.01913l 18.4252, -3.84117l 18.4252, -11.8454l 18.4252, -5.38325" fill="none"
 stroke="#ff0000"/>
<g stroke="#ff0000" stroke-width="1" fill="#ff0000">
<circle cx="68.5315" cy="175.845" r="0.121268"/>
<circle cx="86.9567" cy="175.918" r="0.121268"/>
<circle cx="105.382" cy="175.172" r="0.121268"/>
<circle cx="123.807" cy="176.95" r="0.121268"/>
<circle cx="142.232" cy="178.515" r="0.121268"/>
<circle cx="160.657" cy="185.43" r="0.121268"/>
<circle cx="179.083" cy="181.135" r="0.121268"/>
<circle cx="197.508" cy="184.025" r="0.121268"/>
<circle cx="215.933" cy="186.798" r="0.121268"/>
<circle cx="234.358" cy="182.723" r="0.121268"/>
<circle cx="252.783" cy="184.574" r="0.121268"/>
<circle cx="271.209" cy="183.454" r="0.121268"/>
<circle cx="289.634" cy="184.237" r="0.121268"/>
<circle cx="308.059" cy="182.957" r="0.121268"/>
<circle cx="326.484" cy="184.435" r="0.121268"/>
<circle cx="344.909" cy="185.964" r="0.121268"/>
<circle cx="363.335" cy="185.781" r="0.121268"/>
<circle cx="381.76" cy="180.33" r="0.121268"/>
<circle cx="400.185" cy="176.306" r="0.121268"/>
<circle cx="418.61" cy="266.299" r="0.121268"/>
<circle cx="437.035" cy="261.492" r="0.121268"/>
<circle cx="455.461" cy="256.473" r="0.121268"/>
<circle cx="473.886" cy="252.632" r="0.121268"/>
<circle cx="492.311" cy="240.787" r="0.121268"/>
<circle cx="510.736" cy="235.403" r="0.121268"/>
</g>
<path d="M68.5315,211.682v -2.17636" fill="none" stroke="#00ff00"/>
<path d="M68.5315,209.505h 1.51585" fill="none" stroke="#00ff00"/>
<path d="M68.5315,211.682v 2.17636" fill="none" stroke="#00ff00"/>
<path d="M68.5315,213.858h 1.51585" fill="none" stroke="#00ff00"/>
<path d="M86.9567,216.291v -2.08385" fill="none" stroke="#00ff00"/>
<path d="M85.4408,214.207h 3.03171" fill="none" stroke="#00ff00"/>
<path d="M86.9567,216.291v 2.08385" fill="none" stroke="#00ff00"/>
<path d="M85.4408,218.375h 3.03171" fill="none" stroke="#00ff00"/>
<path d="M105.382,215.567v -2.11573" fill="none" stroke="#00ff00"/>
<path d="M103.866,213.451h 3.03171" fill="none" stroke="#00ff00"/>
<path d="M105.382,215.567v 2.11573" fill="none" stroke="#00ff00"/>
<path d="M103.866,217.682h 3.03171" fill="none" stroke="#00ff00"/>
<path d="M123.807,216.232v -2.14693" fill="none" stroke="#00ff00"/>
<path d="M122.291,214.085h 3.03171" fill="none" stroke="#00ff00"/>
<path d="M123.807,216.232v 2.14693" fill="none" stroke="#00ff00"/>
<path d="M122.291,218.379h 3.03171" fill="none" stroke="#00ff00"/>
<path d="M142.232,218.31v -2.11462" fill="none" stroke="#00ff00"/>
<path d="M140.716,216.196h 3.03171" fill="none" stroke="#00ff00"/>
<path d="M142.232,218.31v 2.11462" fill="none" stroke="#00ff00"/>
<path d="M140.716,220.425h 3.03171" fill="none" stroke="#00ff00"/>
<path d="M160.657,225.598v -2.01179" fill="none" stroke="#00ff00"/>
<path d="M159.142,223.586h 3.03171" fill="none" stroke="#00ff00"/>
<path d="M160.657,225.598v 2.01179" fill="none" stroke="#00ff00"/>
<path d="M159.142,227.609h 3.03171" fill="none" stroke="#00ff00"/>
<path d="M179.083,226.058v -2.06092" fill="none" stroke="#00ff00"/>
<path d="M177.567,223.998h 3.03171" fill="none" stroke="#00ff00"/>
<path d="M179.083,226.058v 2.06092" fill="none" stroke="#00ff00"/>
<path d="M177.567,228.119h 3.03171" fill="none" stroke="#00ff00"/>
<path d="M197.508,224.478v -2.0315" fill="none" stroke="#00ff00"/>
<path d="M195.992,222.447h 3.03171" fill="none" stroke="#00ff00"/>
<path d="M197.508,224.478v 2.0315" fill="none" stroke="#00ff00"/>
<path d="M195.992,226.51h 3.03171" fill="none" stroke="#00ff00"/>
<path d="M215.933,222.686v -2.08572" fill="none" stroke="#00ff00"/>
<path d="M214.417,220.6h 3.03171" fill="none" stroke="#00ff00"/>
<path d="M215.933,222.686v 2.08572" fill="none" stroke="#00ff00"/>
<path d="M214.417,224.771h 3.03171" fill="none" stroke="#00ff00"/>
<path d="M234.358,225.963v -2.07081" fill="none" stroke="#00ff00"/>
<path d="M232.842,223.893h 3.03171" fill="none" stroke="#00ff00"/>
<path d="M234.358,225.963v 2.07081" fill="none" stroke="#00ff00"/>
<path d="M232.842,228.034h 3.03171" fill="none" stroke="#00ff00"/>
<path d="M252.783,224.961v -2.04148" fill="none" stroke="#00ff00"/>
<path d="M251.268,222.92h 3.03171" fill="none" stroke="#00ff00"/>
<path d="M252.783,224.961v 2.04148" fill="none" stroke="#00ff00"/>
<path d="M251.268,227.002h 3.03171" fill="none" stroke="#00ff00"/>
<path d="M271.209,226.527v -2.07309" fill="none" stroke="#00ff00"/>
<path d="M269.693,224.454h 3.03171" fill="none" stroke="#00ff00"/>
<path d="M271.209,226.527v 2.07309" fill="none" stroke="#00ff00"/>
<path d="M269.693,228.6h 3.03171" fill="none" stroke="#00ff00"/>
<path d="M289.634,228.824v -1.97343" fill="none" stroke="#00ff00"/>
<path d="M288.118,226.851h 3.03171" fill="none" stroke="#00ff00"/>
<path d="M289.634,228.824v 1.97343" fill="none" stroke="#00ff00"/>
<path d="M288.118,230.798h 3.03171" fill="none" stroke="#00ff00"/>
<path d="M308.059,225.773v -2.08851" fill="none" stroke="#00ff00"/>
<path d="M306.543,223.685h 3.03171" fill="none" stroke="#00ff00"/>
<path d="M308.059,225.773v 2.08851" fill="none" stroke="#00ff00"/>
<path d="M306.543,227.862h 3.03171" fill="none" stroke="#00ff00"/>
<path d="M326.484,225.619v -2.05098" fill="none" stroke="#00ff00"/>
<path d="M324.968,223.569h 3.03171" fill="none" stroke="#00ff00"/>
<path d="M326.484,225.619v 2.05098" fill="none" stroke="#00ff00"/>
<path d="M324.968,227.67h 3.03171" fill="none" stroke="#00ff00"/>
<path d="M344.909,223.842v -2.08234" fill="none" stroke="#00ff00"/>
<path d="M343.394,221.759h 3.03171" fill="none" stroke="#00ff00"/>
<path d="M344.909,223.842v 2.08234" fill="none" stroke="#00ff00"/>
<path d="M343.394,225.924h 3.03171" fill="none" stroke="#00ff00"/>
<path d="M363.335,225.188v -2.11738" fill="none" stroke="#00ff00"/>
<path d="M361.819,223.07h 3.03171" fill="none" stroke="#00ff00"/>
<path d="M363.335,225.188v 2.11738" fill="none" stroke="#00ff00"/>
<path d="M361.819,227.305h 3.03171" fill="none" stroke="#00ff00"/>
<path d="M381.76,218.098v -2.09128" fill="none" stroke="#00ff00"/>
<path d="M380.244,216.007h 3.03171" fill="none" stroke="#00ff00"/>
<path d="M381.76,218.098v 2.09128" fill="none" stroke="#00ff00"/>
<path d="M380.244,220.189h 3.03171" fill="none" stroke="#00ff00"/>
<path d="M400.185,221.961v -2.01345" fill="none" stroke="#00ff00"/>
<path d="M398.669,219.948h 3.03171" fill="none" stroke="#00ff00"/>
<path d="M400.185,221.961v 2.01345" fill="none" stroke="#00ff00"/>
<path d="M398.669,223.975h 3.03171" fill="none" stroke="#00ff00"/>
<path d="M418.61,296.992v -1.74207" fill="none" stroke="#00ff00"/>
<path d="M417.094,295.25h 3.03171" fill="none" stroke="#00ff00"/>
<path d="M418.61,296.992v 1.74207" fill="none" stroke="#00ff00"/>
<path d="M417.094,298.734h 3.03171" fill="none" stroke="#00ff00"/>
<path d="M437.035,297.263v -1.67707" fill="none" stroke="#00ff00"/>
<path d="M435.52,295.586h 3.03171" fill="none" stroke="#00ff00"/>
<path d="M437.035,297.263v 1.67707" fill="none" stroke="#00ff00"/>
<path d="M435.52,298.94h 3.03171" fill="none" stroke="#00ff00"/>
<path d="M455.461,292.412v -1.74204" fill="none" stroke="#00ff00"/>
<path d="M453.945,290.67h 3.03171" fill="none" stroke="#00ff00"/>
<path d="M455.461,292.412v 1.74204" fill="none" stroke="#00ff00"/>
<path d="M453.945,294.154h 3.03171" fill="none" stroke="#00ff00"/>
<path d="M473.886,285.549v -1.75406" fill="none" stroke="#00ff00"/>
<path d="M472.37,283.795h 3.03171" fill="none" stroke="#00ff00"/>
<path d="M473.886,285.549v 1.75406" fill="none" stroke="#00ff00"/>
<path d="M472.37,287.303h 3.03171" fill="none" stroke="#00ff00"/>
<path d="M492.311,280.208v -1.79689" fill="none" stroke="#00ff00"/>
<path d="M490.795,278.411h 3.03171" fill="none" stroke="#00ff00"/>
<path d="M492.311,280.208v 1.79689" fill="none" stroke="#00ff00"/>
<path d="M490.795,282.005h 3.03171" fill="none" stroke="#00ff00"/>
<path d="M510.736,271.809v -1.80426" fill="none" stroke="#00ff00"/>
<path d="M509.22,270.004h 1.51585" fill="none" stroke="#00ff00"/>
<path d="M510.736,271.809v 1.80426" fill="none" stroke="#00ff00"/>
<path d="M509.22,273.613h 1.51585" fill="none" stroke="#00ff00"/>
<path d="M68.5315,211.682l 18.4252, 4.60941l 18.4252, -0.724335l 18.4252, 0.665803l 18.4252, 2.07789l 18.4252, 7.28725l 18.4252, 0.460941l 18.4252, -1.58037l 18.4252, -1.79255l 18.4252, 3.2778l 18.4252, -1.00236l 18.4252, 1.56573l 18.4252, 2.29739l
 18.4252, -3.05099l 18.4252, -0.153647l 18.4252, -1.77791l 18.4252, 1.34624l 18.4252, -7.08971l 18.4252, 3.86312l 18.4252, 75.0309l 18.4252, 0.270711l 18.4252, -4.85085l 18.4252, -6.86289l 18.4252, -5.34106l 18.4252, -8.39936" fill="none"
 stroke="#00ff00"/>
<g stroke="#00ff00" stroke-width="1" fill="#00ff00">
<circle cx="68.5315" cy="211.682" r="0.121268"/>
<circle cx="86.9567" cy="216.291" r="0.121268"/>
<circle cx="105.382" cy="215.567" r="0.121268"/>
<circle cx="123.807" cy="216.232" r="0.121268"/>
<circle cx="142.232" cy="218.31" r="0.121268"/>
<circle cx="160.657" cy="225.598" r="0.121268"/>
<circle cx="179.083" cy="226.058" r="0.121268"/>
<circle cx="197.508" cy="224.478" r="0.121268"/>
<circle cx="215.933" cy="222.686" r="0.121268"/>
<circle cx="234.358" cy="225.963" r="0.121268"/>
<circle cx="252.783" cy="224.961" r="0.121268"/>
<circle cx="271.209" cy="226.527" r="0.121268"/>
<circle cx="289.634" cy="228.824" r="0.121268"/>
<circle cx="308.059" cy="225.773" r="0.121268"/>
<circle cx="326.484" cy="225.619" r="0.121268"/>
<circle cx="344.909" cy="223.842" r="0.121268"/>
<circle cx="363.335" cy="225.188" r="0.121268"/>
<circle cx="381.76" cy="218.098" r="0.121268"/>
<circle cx="400.185" cy="221.961" r="0.121268"/>
<circle cx="418.61" cy="296.992" r="0.121268"/>
<circle cx="437.035" cy="297.263" r="0.121268"/>
<circle cx="455.461" cy="292.412" r="0.121268"/>
<circle cx="473.886" cy="285.549" r="0.121268"/>
<circle cx="492.311" cy="280.208" r="0.121268"/>
<circle cx="510.736" cy="271.809" r="0.121268"/>
</g>
<path d="M68.5315,231.676l 92.126, 16.3165l 92.126, 5.78232l 92.126, -47.9147l 46.063, 23.9409l 46.063, 28.5856" fill="none" stroke="#0000ff"/>
<g stroke="#0000ff" stroke-width="1" fill="#0000ff">
<circle cx="68.5315" cy="231.676" r="0.121268"/>
<circle cx="160.657" cy="247.993" r="0.121268"/>
<circle cx="252.783" cy="253.775" r="0.121268"/>
<circle cx="344.909" cy="205.861" r="0.121268"/>
<circle cx="390.972" cy="229.801" r="0.121268"/>
<circle cx="437.035" cy="258.387" r="0.121268"/>
</g>
<rect x="68.5315" y="54.8739" width="311.811" height="65.8487" fill="white"/>
<path d="M68.5315,120.723h 311.811" fill="none" stroke="black"/>
<path d="M380.343,120.723v -65.8487" fill="none" stroke="black"/>
<path d="M380.343,54.8739h -311.811" fill="none" stroke="black"/>
<path d="M68.5315,54.8739v 65.8487" fill="none" stroke="black"/>
<text xml:space="preserve" x="146.022" y="66.6975" fill="black" font-size="9.62974" font-family="Helvetica">1000 MeV/c K+ with aerogel</text>
<path d="M80.2244,63.105h 54.5669" fill="none" stroke="black"/>
<g stroke="black" stroke-width="1" fill="black">
<circle cx="107.508" cy="63.105" r="0.121268"/>
</g>
<text xml:space="preserve" x="146.022" y="82.614" fill="black" font-size="9.62974" font-family="Helvetica">1000 MeV/c K+ without aerogel</text>
<path d="M80.2244,79.5671h 54.5669" fill="none" stroke="#ff0000"/>
<g stroke="#ff0000" stroke-width="1" fill="#ff0000">
<circle cx="107.508" cy="79.5671" r="0.121268"/>
</g>
<text xml:space="preserve" x="146.022" y="99.2884" fill="black" font-size="9.62974" font-family="Helvetica">500 MeV/c e- without aerogel</text>
<path d="M80.2244,96.0293h 54.5669" fill="none" stroke="#00ff00"/>
<g stroke="#00ff00" stroke-width="1" fill="#00ff00">
<circle cx="107.508" cy="96.0293" r="0.121268"/>
</g>
<text xml:space="preserve" x="146.022" y="115.963" fill="black" font-size="9.62974" font-family="Helvetica">500 MeV/c e- without aerogel(measured, normalized)</text>
<path d="M80.2244,112.491h 54.5669" fill="none" stroke="#0000ff"/>
<g stroke="#0000ff" stroke-width="1" fill="#0000ff">
<circle cx="107.508" cy="112.491" r="0.121268"/>
</g>
<text xml:space="preserve" x="106.61" y="25.7695" fill="black" font-size="26.0331" font-family="Helvetica">incident at 40 degrees(TYPEA)</text></svg>
