<?xml version="1.0" standalone="no"?>
<svg width="567.429" height="549.239" viewBox="0 0 567.429 549.239" xmlns="http://www.w3.org/2000/svg" shape-rendering="crispEdges">
<title>
anal_davis_c3.svg
</title>
<desc>
Creator: ROOT Version 6.16/00
CreationDate: Sun Nov 17 16:08:41 2019</desc>
<defs>
</defs>
<rect x="0.5" y="0" width="566.929" height="548.739" fill="white"/>
<rect x="57.1929" y="54.8739" width="453.543" height="438.991" fill="white"/>
<rect x="57.1929" y="54.8739" width="453.543" height="438.991" fill="none" stroke="black"/>
<rect x="57.1929" y="54.8739" width="453.543" height="438.991" fill="white"/>
<rect x="57.1929" y="54.8739" width="453.543" height="438.991" fill="none" stroke="black"/>
<path d="M57.1929,493.865h 453.543" fill="none" stroke="black"/>
<path d="M77.8085,54.8739v 438.991" fill="none" stroke="black" stroke-dasharray=" 1, 2"/>
<path d="M163.707,54.8739v 438.991" fill="none" stroke="black" stroke-dasharray=" 1, 2"/>
<path d="M249.605,54.8739v 438.991" fill="none" stroke="black" stroke-dasharray=" 1, 2"/>
<path d="M335.504,54.8739v 438.991" fill="none" stroke="black" stroke-dasharray=" 1, 2"/>
<path d="M421.402,54.8739v 438.991" fill="none" stroke="black" stroke-dasharray=" 1, 2"/>
<path d="M507.3,54.8739v 438.991" fill="none" stroke="black" stroke-dasharray=" 1, 2"/>
<path d="M77.8085,54.8739v 438.991" fill="none" stroke="black" stroke-dasharray=" 1, 2"/>
<path d="M507.3,54.8739v 438.991" fill="none" stroke="black" stroke-dasharray=" 1, 2"/>
<path d="M57.1929,493.865v -438.991" fill="none" stroke="black"/>
<path d="M510.736,493.865h -453.543" fill="none" stroke="black" stroke-dasharray=" 1, 2"/>
<path d="M510.736,445.088h -453.543" fill="none" stroke="black" stroke-dasharray=" 1, 2"/>
<path d="M510.736,396.311h -453.543" fill="none" stroke="black" stroke-dasharray=" 1, 2"/>
<path d="M510.736,347.535h -453.543" fill="none" stroke="black" stroke-dasharray=" 1, 2"/>
<path d="M510.736,298.758h -453.543" fill="none" stroke="black" stroke-dasharray=" 1, 2"/>
<path d="M510.736,249.981h -453.543" fill="none" stroke="black" stroke-dasharray=" 1, 2"/>
<path d="M510.736,201.204h -453.543" fill="none" stroke="black" stroke-dasharray=" 1, 2"/>
<path d="M510.736,152.427h -453.543" fill="none" stroke="black" stroke-dasharray=" 1, 2"/>
<path d="M510.736,103.651h -453.543" fill="none" stroke="black" stroke-dasharray=" 1, 2"/>
<path d="M510.736,54.8739h -453.543" fill="none" stroke="black" stroke-dasharray=" 1, 2"/>
<path d="M57.1929,493.865h 453.543" fill="none" stroke="black"/>
<path d="M77.8085,480.695v 13.1697" fill="none" stroke="black"/>
<path d="M94.9882,487.28v 6.58487" fill="none" stroke="black"/>
<path d="M112.168,487.28v 6.58487" fill="none" stroke="black"/>
<path d="M129.348,487.28v 6.58487" fill="none" stroke="black"/>
<path d="M146.527,487.28v 6.58487" fill="none" stroke="black"/>
<path d="M163.707,480.695v 13.1697" fill="none" stroke="black"/>
<path d="M180.887,487.28v 6.58487" fill="none" stroke="black"/>
<path d="M198.066,487.28v 6.58487" fill="none" stroke="black"/>
<path d="M215.246,487.28v 6.58487" fill="none" stroke="black"/>
<path d="M232.426,487.28v 6.58487" fill="none" stroke="black"/>
<path d="M249.605,480.695v 13.1697" fill="none" stroke="black"/>
<path d="M266.785,487.28v 6.58487" fill="none" stroke="black"/>
<path d="M283.965,487.28v 6.58487" fill="none" stroke="black"/>
<path d="M301.144,487.28v 6.58487" fill="none" stroke="black"/>
<path d="M318.324,487.28v 6.58487" fill="none" stroke="black"/>
<path d="M335.504,480.695v 13.1697" fill="none" stroke="black"/>
<path d="M352.683,487.28v 6.58487" fill="none" stroke="black"/>
<path d="M369.863,487.28v 6.58487" fill="none" stroke="black"/>
<path d="M387.043,487.28v 6.58487" fill="none" stroke="black"/>
<path d="M404.222,487.28v 6.58487" fill="none" stroke="black"/>
<path d="M421.402,480.695v 13.1697" fill="none" stroke="black"/>
<path d="M438.582,487.28v 6.58487" fill="none" stroke="black"/>
<path d="M455.761,487.28v 6.58487" fill="none" stroke="black"/>
<path d="M472.941,487.28v 6.58487" fill="none" stroke="black"/>
<path d="M490.121,487.28v 6.58487" fill="none" stroke="black"/>
<path d="M507.3,480.695v 13.1697" fill="none" stroke="black"/>
<path d="M77.8085,480.695v 13.1697" fill="none" stroke="black"/>
<path d="M60.6288,487.28v 6.58487" fill="none" stroke="black"/>
<path d="M507.3,480.695v 13.1697" fill="none" stroke="black"/>
<text xml:space="preserve" x="72.503" y="511.601" fill="black" font-size="18.1201" font-family="Helvetica">0</text>
<text xml:space="preserve" x="153.601" y="511.601" fill="black" font-size="18.1201" font-family="Helvetica">50</text>
<text xml:space="preserve" x="233.941" y="511.601" fill="black" font-size="18.1201" font-family="Helvetica">100</text>
<text xml:space="preserve" x="320.345" y="511.601" fill="black" font-size="18.1201" font-family="Helvetica">150</text>
<text xml:space="preserve" x="405.991" y="511.601" fill="black" font-size="18.1201" font-family="Helvetica">200</text>
<text xml:space="preserve" x="491.636" y="511.601" fill="black" font-size="18.1201" font-family="Helvetica">250</text>
<text xml:space="preserve" x="338.535" y="529.791" fill="black" font-size="18.1201" font-family="Helvetica">incident position(mm)</text>
<path d="M57.1929,493.865v -438.991" fill="none" stroke="black"/>
<path d="M70.7992,493.865h -13.6063" fill="none" stroke="black"/>
<path d="M63.9961,484.11h -6.80315" fill="none" stroke="black"/>
<path d="M63.9961,474.354h -6.80315" fill="none" stroke="black"/>
<path d="M63.9961,464.599h -6.80315" fill="none" stroke="black"/>
<path d="M63.9961,454.844h -6.80315" fill="none" stroke="black"/>
<path d="M70.7992,445.088h -13.6063" fill="none" stroke="black"/>
<path d="M63.9961,435.333h -6.80315" fill="none" stroke="black"/>
<path d="M63.9961,425.578h -6.80315" fill="none" stroke="black"/>
<path d="M63.9961,415.822h -6.80315" fill="none" stroke="black"/>
<path d="M63.9961,406.067h -6.80315" fill="none" stroke="black"/>
<path d="M70.7992,396.311h -13.6063" fill="none" stroke="black"/>
<path d="M63.9961,386.556h -6.80315" fill="none" stroke="black"/>
<path d="M63.9961,376.801h -6.80315" fill="none" stroke="black"/>
<path d="M63.9961,367.045h -6.80315" fill="none" stroke="black"/>
<path d="M63.9961,357.29h -6.80315" fill="none" stroke="black"/>
<path d="M70.7992,347.535h -13.6063" fill="none" stroke="black"/>
<path d="M63.9961,337.779h -6.80315" fill="none" stroke="black"/>
<path d="M63.9961,328.024h -6.80315" fill="none" stroke="black"/>
<path d="M63.9961,318.269h -6.80315" fill="none" stroke="black"/>
<path d="M63.9961,308.513h -6.80315" fill="none" stroke="black"/>
<path d="M70.7992,298.758h -13.6063" fill="none" stroke="black"/>
<path d="M63.9961,289.003h -6.80315" fill="none" stroke="black"/>
<path d="M63.9961,279.247h -6.80315" fill="none" stroke="black"/>
<path d="M63.9961,269.492h -6.80315" fill="none" stroke="black"/>
<path d="M63.9961,259.736h -6.80315" fill="none" stroke="black"/>
<path d="M70.7992,249.981h -13.6063" fill="none" stroke="black"/>
<path d="M63.9961,240.226h -6.80315" fill="none" stroke="black"/>
<path d="M63.9961,230.47h -6.80315" fill="none" stroke="black"/>
<path d="M63.9961,220.715h -6.80315" fill="none" stroke="black"/>
<path d="M63.9961,210.96h -6.80315" fill="none" stroke="black"/>
<path d="M70.7992,201.204h -13.6063" fill="none" stroke="black"/>
<path d="M63.9961,191.449h -6.80315" fill="none" stroke="black"/>
<path d="M63.9961,181.694h -6.80315" fill="none" stroke="black"/>
<path d="M63.9961,171.938h -6.80315" fill="none" stroke="black"/>
<path d="M63.9961,162.183h -6.80315" fill="none" stroke="black"/>
<path d="M70.7992,152.427h -13.6063" fill="none" stroke="black"/>
<path d="M63.9961,142.672h -6.80315" fill="none" stroke="black"/>
<path d="M63.9961,132.917h -6.80315" fill="none" stroke="black"/>
<path d="M63.9961,123.161h -6.80315" fill="none" stroke="black"/>
<path d="M63.9961,113.406h -6.80315" fill="none" stroke="black"/>
<path d="M70.7992,103.651h -13.6063" fill="none" stroke="black"/>
<path d="M63.9961,93.8953h -6.80315" fill="none" stroke="black"/>
<path d="M63.9961,84.14h -6.80315" fill="none" stroke="black"/>
<path d="M63.9961,74.3846h -6.80315" fill="none" stroke="black"/>
<path d="M63.9961,64.6293h -6.80315" fill="none" stroke="black"/>
<path d="M70.7992,54.8739h -13.6063" fill="none" stroke="black"/>
<text xml:space="preserve" x="44.4597" y="500.232" fill="black" font-size="18.1201" font-family="Helvetica">0</text>
<text xml:space="preserve" x="44.4597" y="451.724" fill="black" font-size="18.1201" font-family="Helvetica">5</text>
<text xml:space="preserve" x="34.6067" y="402.459" fill="black" font-size="18.1201" font-family="Helvetica">10</text>
<text xml:space="preserve" x="34.6067" y="353.952" fill="black" font-size="18.1201" font-family="Helvetica">15</text>
<text xml:space="preserve" x="34.6067" y="305.444" fill="black" font-size="18.1201" font-family="Helvetica">20</text>
<text xml:space="preserve" x="34.6067" y="256.179" fill="black" font-size="18.1201" font-family="Helvetica">25</text>
<text xml:space="preserve" x="34.6067" y="207.672" fill="black" font-size="18.1201" font-family="Helvetica">30</text>
<text xml:space="preserve" x="34.6067" y="159.165" fill="black" font-size="18.1201" font-family="Helvetica">35</text>
<text xml:space="preserve" x="34.6067" y="109.899" fill="black" font-size="18.1201" font-family="Helvetica">40</text>
<text xml:space="preserve" x="34.6067" y="61.3921" fill="black" font-size="18.1201" font-family="Helvetica">45</text>
<g transform="rotate(-90,21.7219,87.9195)">
<text xml:space="preserve" x="21.7219" y="87.9195" fill="black" font-size="18.1201" font-family="Helvetica">Npe</text>
</g>
<path d="M77.8085,320.643v -0.425295" fill="none" stroke="black"/>
<path d="M76.2927,320.218h 3.03171" fill="none" stroke="black"/>
<path d="M77.8085,320.643v 0.425295" fill="none" stroke="black"/>
<path d="M76.2927,321.068h 3.03171" fill="none" stroke="black"/>
<path d="M94.9882,316.392v -0.437656" fill="none" stroke="black"/>
<path d="M93.4723,315.954h 3.03171" fill="none" stroke="black"/>
<path d="M94.9882,316.392v 0.437656" fill="none" stroke="black"/>
<path d="M93.4723,316.829h 3.03171" fill="none" stroke="black"/>
<path d="M112.168,312.556v -0.441849" fill="none" stroke="black"/>
<path d="M110.652,312.114h 3.03171" fill="none" stroke="black"/>
<path d="M112.168,312.556v 0.441849" fill="none" stroke="black"/>
<path d="M110.652,312.998h 3.03171" fill="none" stroke="black"/>
<path d="M129.348,307.704v -0.453271" fill="none" stroke="black"/>
<path d="M127.832,307.251h 3.03171" fill="none" stroke="black"/>
<path d="M129.348,307.704v 0.453271" fill="none" stroke="black"/>
<path d="M127.832,308.158h 3.03171" fill="none" stroke="black"/>
<path d="M146.527,300.697v -0.455165" fill="none" stroke="black"/>
<path d="M145.011,300.242h 3.03171" fill="none" stroke="black"/>
<path d="M146.527,300.697v 0.455165" fill="none" stroke="black"/>
<path d="M145.011,301.152h 3.03171" fill="none" stroke="black"/>
<path d="M163.707,290.868v -0.474649" fill="none" stroke="black"/>
<path d="M162.191,290.393h 3.03171" fill="none" stroke="black"/>
<path d="M163.707,290.868v 0.474649" fill="none" stroke="black"/>
<path d="M162.191,291.342h 3.03171" fill="none" stroke="black"/>
<path d="M180.887,279.314v -0.482535" fill="none" stroke="black"/>
<path d="M179.371,278.832h 3.03171" fill="none" stroke="black"/>
<path d="M180.887,279.314v 0.482535" fill="none" stroke="black"/>
<path d="M179.371,279.797h 3.03171" fill="none" stroke="black"/>
<path d="M198.066,270.84v -0.494481" fill="none" stroke="black"/>
<path d="M196.55,270.345h 3.03171" fill="none" stroke="black"/>
<path d="M198.066,270.84v 0.494481" fill="none" stroke="black"/>
<path d="M196.55,271.334h 3.03171" fill="none" stroke="black"/>
<path d="M215.246,260.364v -0.501537" fill="none" stroke="black"/>
<path d="M213.73,259.862h 3.03171" fill="none" stroke="black"/>
<path d="M215.246,260.364v 0.501537" fill="none" stroke="black"/>
<path d="M213.73,260.865h 3.03171" fill="none" stroke="black"/>
<path d="M232.426,244.455v -0.523347" fill="none" stroke="black"/>
<path d="M230.91,243.931h 3.03171" fill="none" stroke="black"/>
<path d="M232.426,244.455v 0.523347" fill="none" stroke="black"/>
<path d="M230.91,244.978h 3.03171" fill="none" stroke="black"/>
<path d="M249.605,231.337v -0.538023" fill="none" stroke="black"/>
<path d="M248.089,230.799h 3.03171" fill="none" stroke="black"/>
<path d="M249.605,231.337v 0.538023" fill="none" stroke="black"/>
<path d="M248.089,231.875h 3.03171" fill="none" stroke="black"/>
<path d="M266.785,220.567v -0.544838" fill="none" stroke="black"/>
<path d="M265.269,220.022h 3.03171" fill="none" stroke="black"/>
<path d="M266.785,220.567v 0.544838" fill="none" stroke="black"/>
<path d="M265.269,221.112h 3.03171" fill="none" stroke="black"/>
<path d="M283.965,211.299v -0.556384" fill="none" stroke="black"/>
<path d="M282.449,210.743h 3.03171" fill="none" stroke="black"/>
<path d="M283.965,211.299v 0.556384" fill="none" stroke="black"/>
<path d="M282.449,211.856h 3.03171" fill="none" stroke="black"/>
<path d="M301.144,206.133v -0.556026" fill="none" stroke="black"/>
<path d="M299.628,205.577h 3.03171" fill="none" stroke="black"/>
<path d="M301.144,206.133v 0.556026" fill="none" stroke="black"/>
<path d="M299.628,206.689h 3.03171" fill="none" stroke="black"/>
<path d="M318.324,205.782v -0.561919" fill="none" stroke="black"/>
<path d="M316.808,205.221h 3.03171" fill="none" stroke="black"/>
<path d="M318.324,205.782v 0.561919" fill="none" stroke="black"/>
<path d="M316.808,206.344h 3.03171" fill="none" stroke="black"/>
<path d="M335.504,203.878v -0.555478" fill="none" stroke="black"/>
<path d="M333.988,203.323h 3.03171" fill="none" stroke="black"/>
<path d="M335.504,203.878v 0.555478" fill="none" stroke="black"/>
<path d="M333.988,204.434h 3.03171" fill="none" stroke="black"/>
<path d="M352.683,188.288v -0.558942" fill="none" stroke="black"/>
<path d="M351.167,187.729h 3.03171" fill="none" stroke="black"/>
<path d="M352.683,188.288v 0.558942" fill="none" stroke="black"/>
<path d="M351.167,188.847h 3.03171" fill="none" stroke="black"/>
<path d="M369.863,171.807v -0.586369" fill="none" stroke="black"/>
<path d="M368.347,171.22h 3.03171" fill="none" stroke="black"/>
<path d="M369.863,171.807v 0.586369" fill="none" stroke="black"/>
<path d="M368.347,172.393h 3.03171" fill="none" stroke="black"/>
<path d="M387.043,169.715v -0.607847" fill="none" stroke="black"/>
<path d="M385.527,169.107h 3.03171" fill="none" stroke="black"/>
<path d="M387.043,169.715v 0.607847" fill="none" stroke="black"/>
<path d="M385.527,170.323h 3.03171" fill="none" stroke="black"/>
<path d="M404.222,181.185v -0.591982" fill="none" stroke="black"/>
<path d="M402.706,180.593h 3.03171" fill="none" stroke="black"/>
<path d="M404.222,181.185v 0.591982" fill="none" stroke="black"/>
<path d="M402.706,181.777h 3.03171" fill="none" stroke="black"/>
<path d="M421.402,193.662v -0.57192" fill="none" stroke="black"/>
<path d="M419.886,193.09h 3.03171" fill="none" stroke="black"/>
<path d="M421.402,193.662v 0.57192" fill="none" stroke="black"/>
<path d="M419.886,194.234h 3.03171" fill="none" stroke="black"/>
<path d="M438.582,213.021v -0.5511" fill="none" stroke="black"/>
<path d="M437.066,212.47h 3.03171" fill="none" stroke="black"/>
<path d="M438.582,213.021v 0.5511" fill="none" stroke="black"/>
<path d="M437.066,213.572h 3.03171" fill="none" stroke="black"/>
<path d="M455.761,262.517v -0.493769" fill="none" stroke="black"/>
<path d="M454.245,262.023h 3.03171" fill="none" stroke="black"/>
<path d="M455.761,262.517v 0.493769" fill="none" stroke="black"/>
<path d="M454.245,263.01h 3.03171" fill="none" stroke="black"/>
<path d="M472.941,305.119v -0.444145" fill="none" stroke="black"/>
<path d="M471.425,304.675h 3.03171" fill="none" stroke="black"/>
<path d="M472.941,305.119v 0.444145" fill="none" stroke="black"/>
<path d="M471.425,305.563h 3.03171" fill="none" stroke="black"/>
<path d="M490.121,349.026v -0.399056" fill="none" stroke="black"/>
<path d="M488.605,348.627h 3.03171" fill="none" stroke="black"/>
<path d="M490.121,349.026v 0.399056" fill="none" stroke="black"/>
<path d="M488.605,349.425h 3.03171" fill="none" stroke="black"/>
<path d="M77.8085,320.643l 17.1797, -4.25139l 17.1797, -3.83581l 17.1797, -4.85134l 17.1797, -7.00727l 17.1797, -9.8295l 17.1797, -11.5533l 17.1797, -8.47448l 17.1797, -10.4763l 17.1797, -15.909l 17.1797, -13.118l 17.1797, -10.7699l 17.1797,
 -9.26756l 17.1797, -5.16647l 17.1797, -0.350217l 17.1797, -1.90425l 17.1797, -15.59l 17.1797, -16.4817l 17.1797, -2.09155l 17.1797, 11.4704l 17.1797, 12.4771l 17.1797, 19.3585l 17.1797, 49.4958l 17.1797, 42.6026l 17.1797, 43.9069" fill="none"
 stroke="black"/>
<g stroke="black" stroke-width="1" fill="black">
<circle cx="77.8085" cy="320.643" r="0.121268"/>
<circle cx="94.9882" cy="316.392" r="0.121268"/>
<circle cx="112.168" cy="312.556" r="0.121268"/>
<circle cx="129.348" cy="307.704" r="0.121268"/>
<circle cx="146.527" cy="300.697" r="0.121268"/>
<circle cx="163.707" cy="290.868" r="0.121268"/>
<circle cx="180.887" cy="279.314" r="0.121268"/>
<circle cx="198.066" cy="270.84" r="0.121268"/>
<circle cx="215.246" cy="260.364" r="0.121268"/>
<circle cx="232.426" cy="244.455" r="0.121268"/>
<circle cx="249.605" cy="231.337" r="0.121268"/>
<circle cx="266.785" cy="220.567" r="0.121268"/>
<circle cx="283.965" cy="211.299" r="0.121268"/>
<circle cx="301.144" cy="206.133" r="0.121268"/>
<circle cx="318.324" cy="205.782" r="0.121268"/>
<circle cx="335.504" cy="203.878" r="0.121268"/>
<circle cx="352.683" cy="188.288" r="0.121268"/>
<circle cx="369.863" cy="171.807" r="0.121268"/>
<circle cx="387.043" cy="169.715" r="0.121268"/>
<circle cx="404.222" cy="181.185" r="0.121268"/>
<circle cx="421.402" cy="193.662" r="0.121268"/>
<circle cx="438.582" cy="213.021" r="0.121268"/>
<circle cx="455.761" cy="262.517" r="0.121268"/>
<circle cx="472.941" cy="305.119" r="0.121268"/>
<circle cx="490.121" cy="349.026" r="0.121268"/>
</g>
<path d="M77.8085,314.478l 34.3593, -30.09l 34.3593, 3.13731l 34.3593, 18.981l 34.3593, -18.0177l 34.3593, -23.3803l 34.3593, -7.1215l 34.3593, -35.881l 34.3593, -9.46376l 34.3593, -55.4075l 34.3593, 17.714l 17.1797, 37.8779" fill="none"
 stroke="#ff0000"/>
<g stroke="#ff0000" stroke-width="1" fill="none">
<line x1="76.8085" y1="314.478" x2="77.8085" y2="314.478"/>
<line x1="111.168" y1="284.388" x2="112.168" y2="284.388"/>
<line x1="145.527" y1="287.525" x2="146.527" y2="287.525"/>
<line x1="179.887" y1="306.507" x2="180.887" y2="306.507"/>
<line x1="214.246" y1="288.489" x2="215.246" y2="288.489"/>
<line x1="248.605" y1="265.109" x2="249.605" y2="265.109"/>
<line x1="282.965" y1="257.987" x2="283.965" y2="257.987"/>
<line x1="317.324" y1="222.106" x2="318.324" y2="222.106"/>
<line x1="351.683" y1="212.642" x2="352.683" y2="212.642"/>
<line x1="386.043" y1="157.235" x2="387.043" y2="157.235"/>
<line x1="420.402" y1="174.949" x2="421.402" y2="174.949"/>
<line x1="437.582" y1="212.827" x2="438.582" y2="212.827"/>
</g>
<rect x="57.1929" y="54.8739" width="198.425" height="65.8487" fill="white"/>
<path d="M57.1929,120.723h 198.425" fill="none" stroke="black"/>
<path d="M255.618,120.723v -65.8487" fill="none" stroke="black"/>
<path d="M255.618,54.8739h -198.425" fill="none" stroke="black"/>
<path d="M57.1929,54.8739v 65.8487" fill="none" stroke="black"/>
<text xml:space="preserve" x="106.61" y="75.7927" fill="black" font-size="13.9293" font-family="Helvetica">sim(DAVIS)</text>
<path d="M64.6339,71.3361h 34.7244" fill="none" stroke="black"/>
<g stroke="black" stroke-width="1" fill="black">
<circle cx="81.9961" cy="71.3361" r="0.121268"/>
</g>
<text xml:space="preserve" x="106.61" y="108.384" fill="black" font-size="13.9293" font-family="Helvetica">beam test(normalized)</text>
<path d="M64.6339,104.26h 34.7244" fill="none" stroke="#ff0000"/>
<g stroke="#ff0000" stroke-width="1" fill="none">
<line x1="80.9961" y1="104.26" x2="81.9961" y2="104.26"/>
</g>
<text xml:space="preserve" x="103.578" y="23.4957" fill="black" font-size="16.4943" font-family="Helvetica">500 MeV/c electron incident at 40 degrees(TYPEA)</text></svg>
