<?xml version="1.0" standalone="no"?>
<svg width="567.429" height="549.239" viewBox="0 0 567.429 549.239" xmlns="http://www.w3.org/2000/svg" shape-rendering="crispEdges">
<title>
anal_davis_c4.svg
</title>
<desc>
Creator: ROOT Version 6.16/00
CreationDate: Sun Nov 17 16:08:41 2019</desc>
<defs>
</defs>
<rect x="0.5" y="0" width="566.929" height="548.739" fill="white"/>
<rect x="57.1929" y="54.8739" width="453.543" height="438.991" fill="white"/>
<rect x="57.1929" y="54.8739" width="453.543" height="438.991" fill="none" stroke="black"/>
<rect x="57.1929" y="54.8739" width="453.543" height="438.991" fill="white"/>
<rect x="57.1929" y="54.8739" width="453.543" height="438.991" fill="none" stroke="black"/>
<path d="M57.1929,493.865h 453.543" fill="none" stroke="black"/>
<path d="M77.8085,54.8739v 438.991" fill="none" stroke="black" stroke-dasharray=" 1, 2"/>
<path d="M163.707,54.8739v 438.991" fill="none" stroke="black" stroke-dasharray=" 1, 2"/>
<path d="M249.605,54.8739v 438.991" fill="none" stroke="black" stroke-dasharray=" 1, 2"/>
<path d="M335.504,54.8739v 438.991" fill="none" stroke="black" stroke-dasharray=" 1, 2"/>
<path d="M421.402,54.8739v 438.991" fill="none" stroke="black" stroke-dasharray=" 1, 2"/>
<path d="M507.3,54.8739v 438.991" fill="none" stroke="black" stroke-dasharray=" 1, 2"/>
<path d="M77.8085,54.8739v 438.991" fill="none" stroke="black" stroke-dasharray=" 1, 2"/>
<path d="M507.3,54.8739v 438.991" fill="none" stroke="black" stroke-dasharray=" 1, 2"/>
<path d="M57.1929,493.865v -438.991" fill="none" stroke="black"/>
<path d="M510.736,493.865h -453.543" fill="none" stroke="black" stroke-dasharray=" 1, 2"/>
<path d="M510.736,445.088h -453.543" fill="none" stroke="black" stroke-dasharray=" 1, 2"/>
<path d="M510.736,396.311h -453.543" fill="none" stroke="black" stroke-dasharray=" 1, 2"/>
<path d="M510.736,347.535h -453.543" fill="none" stroke="black" stroke-dasharray=" 1, 2"/>
<path d="M510.736,298.758h -453.543" fill="none" stroke="black" stroke-dasharray=" 1, 2"/>
<path d="M510.736,249.981h -453.543" fill="none" stroke="black" stroke-dasharray=" 1, 2"/>
<path d="M510.736,201.204h -453.543" fill="none" stroke="black" stroke-dasharray=" 1, 2"/>
<path d="M510.736,152.427h -453.543" fill="none" stroke="black" stroke-dasharray=" 1, 2"/>
<path d="M510.736,103.651h -453.543" fill="none" stroke="black" stroke-dasharray=" 1, 2"/>
<path d="M510.736,54.8739h -453.543" fill="none" stroke="black" stroke-dasharray=" 1, 2"/>
<path d="M57.1929,493.865h 453.543" fill="none" stroke="black"/>
<path d="M77.8085,480.695v 13.1697" fill="none" stroke="black"/>
<path d="M94.9882,487.28v 6.58487" fill="none" stroke="black"/>
<path d="M112.168,487.28v 6.58487" fill="none" stroke="black"/>
<path d="M129.348,487.28v 6.58487" fill="none" stroke="black"/>
<path d="M146.527,487.28v 6.58487" fill="none" stroke="black"/>
<path d="M163.707,480.695v 13.1697" fill="none" stroke="black"/>
<path d="M180.887,487.28v 6.58487" fill="none" stroke="black"/>
<path d="M198.066,487.28v 6.58487" fill="none" stroke="black"/>
<path d="M215.246,487.28v 6.58487" fill="none" stroke="black"/>
<path d="M232.426,487.28v 6.58487" fill="none" stroke="black"/>
<path d="M249.605,480.695v 13.1697" fill="none" stroke="black"/>
<path d="M266.785,487.28v 6.58487" fill="none" stroke="black"/>
<path d="M283.965,487.28v 6.58487" fill="none" stroke="black"/>
<path d="M301.144,487.28v 6.58487" fill="none" stroke="black"/>
<path d="M318.324,487.28v 6.58487" fill="none" stroke="black"/>
<path d="M335.504,480.695v 13.1697" fill="none" stroke="black"/>
<path d="M352.683,487.28v 6.58487" fill="none" stroke="black"/>
<path d="M369.863,487.28v 6.58487" fill="none" stroke="black"/>
<path d="M387.043,487.28v 6.58487" fill="none" stroke="black"/>
<path d="M404.222,487.28v 6.58487" fill="none" stroke="black"/>
<path d="M421.402,480.695v 13.1697" fill="none" stroke="black"/>
<path d="M438.582,487.28v 6.58487" fill="none" stroke="black"/>
<path d="M455.761,487.28v 6.58487" fill="none" stroke="black"/>
<path d="M472.941,487.28v 6.58487" fill="none" stroke="black"/>
<path d="M490.121,487.28v 6.58487" fill="none" stroke="black"/>
<path d="M507.3,480.695v 13.1697" fill="none" stroke="black"/>
<path d="M77.8085,480.695v 13.1697" fill="none" stroke="black"/>
<path d="M60.6288,487.28v 6.58487" fill="none" stroke="black"/>
<path d="M507.3,480.695v 13.1697" fill="none" stroke="black"/>
<text xml:space="preserve" x="72.503" y="511.601" fill="black" font-size="18.1201" font-family="Helvetica">0</text>
<text xml:space="preserve" x="153.601" y="511.601" fill="black" font-size="18.1201" font-family="Helvetica">50</text>
<text xml:space="preserve" x="233.941" y="511.601" fill="black" font-size="18.1201" font-family="Helvetica">100</text>
<text xml:space="preserve" x="320.345" y="511.601" fill="black" font-size="18.1201" font-family="Helvetica">150</text>
<text xml:space="preserve" x="405.991" y="511.601" fill="black" font-size="18.1201" font-family="Helvetica">200</text>
<text xml:space="preserve" x="491.636" y="511.601" fill="black" font-size="18.1201" font-family="Helvetica">250</text>
<text xml:space="preserve" x="338.535" y="529.791" fill="black" font-size="18.1201" font-family="Helvetica">incident position(mm)</text>
<path d="M57.1929,493.865v -438.991" fill="none" stroke="black"/>
<path d="M70.7992,493.865h -13.6063" fill="none" stroke="black"/>
<path d="M63.9961,484.11h -6.80315" fill="none" stroke="black"/>
<path d="M63.9961,474.354h -6.80315" fill="none" stroke="black"/>
<path d="M63.9961,464.599h -6.80315" fill="none" stroke="black"/>
<path d="M63.9961,454.844h -6.80315" fill="none" stroke="black"/>
<path d="M70.7992,445.088h -13.6063" fill="none" stroke="black"/>
<path d="M63.9961,435.333h -6.80315" fill="none" stroke="black"/>
<path d="M63.9961,425.578h -6.80315" fill="none" stroke="black"/>
<path d="M63.9961,415.822h -6.80315" fill="none" stroke="black"/>
<path d="M63.9961,406.067h -6.80315" fill="none" stroke="black"/>
<path d="M70.7992,396.311h -13.6063" fill="none" stroke="black"/>
<path d="M63.9961,386.556h -6.80315" fill="none" stroke="black"/>
<path d="M63.9961,376.801h -6.80315" fill="none" stroke="black"/>
<path d="M63.9961,367.045h -6.80315" fill="none" stroke="black"/>
<path d="M63.9961,357.29h -6.80315" fill="none" stroke="black"/>
<path d="M70.7992,347.535h -13.6063" fill="none" stroke="black"/>
<path d="M63.9961,337.779h -6.80315" fill="none" stroke="black"/>
<path d="M63.9961,328.024h -6.80315" fill="none" stroke="black"/>
<path d="M63.9961,318.269h -6.80315" fill="none" stroke="black"/>
<path d="M63.9961,308.513h -6.80315" fill="none" stroke="black"/>
<path d="M70.7992,298.758h -13.6063" fill="none" stroke="black"/>
<path d="M63.9961,289.003h -6.80315" fill="none" stroke="black"/>
<path d="M63.9961,279.247h -6.80315" fill="none" stroke="black"/>
<path d="M63.9961,269.492h -6.80315" fill="none" stroke="black"/>
<path d="M63.9961,259.736h -6.80315" fill="none" stroke="black"/>
<path d="M70.7992,249.981h -13.6063" fill="none" stroke="black"/>
<path d="M63.9961,240.226h -6.80315" fill="none" stroke="black"/>
<path d="M63.9961,230.47h -6.80315" fill="none" stroke="black"/>
<path d="M63.9961,220.715h -6.80315" fill="none" stroke="black"/>
<path d="M63.9961,210.96h -6.80315" fill="none" stroke="black"/>
<path d="M70.7992,201.204h -13.6063" fill="none" stroke="black"/>
<path d="M63.9961,191.449h -6.80315" fill="none" stroke="black"/>
<path d="M63.9961,181.694h -6.80315" fill="none" stroke="black"/>
<path d="M63.9961,171.938h -6.80315" fill="none" stroke="black"/>
<path d="M63.9961,162.183h -6.80315" fill="none" stroke="black"/>
<path d="M70.7992,152.427h -13.6063" fill="none" stroke="black"/>
<path d="M63.9961,142.672h -6.80315" fill="none" stroke="black"/>
<path d="M63.9961,132.917h -6.80315" fill="none" stroke="black"/>
<path d="M63.9961,123.161h -6.80315" fill="none" stroke="black"/>
<path d="M63.9961,113.406h -6.80315" fill="none" stroke="black"/>
<path d="M70.7992,103.651h -13.6063" fill="none" stroke="black"/>
<path d="M63.9961,93.8953h -6.80315" fill="none" stroke="black"/>
<path d="M63.9961,84.14h -6.80315" fill="none" stroke="black"/>
<path d="M63.9961,74.3846h -6.80315" fill="none" stroke="black"/>
<path d="M63.9961,64.6293h -6.80315" fill="none" stroke="black"/>
<path d="M70.7992,54.8739h -13.6063" fill="none" stroke="black"/>
<text xml:space="preserve" x="44.4597" y="500.232" fill="black" font-size="18.1201" font-family="Helvetica">0</text>
<text xml:space="preserve" x="44.4597" y="451.724" fill="black" font-size="18.1201" font-family="Helvetica">5</text>
<text xml:space="preserve" x="34.6067" y="402.459" fill="black" font-size="18.1201" font-family="Helvetica">10</text>
<text xml:space="preserve" x="34.6067" y="353.952" fill="black" font-size="18.1201" font-family="Helvetica">15</text>
<text xml:space="preserve" x="34.6067" y="305.444" fill="black" font-size="18.1201" font-family="Helvetica">20</text>
<text xml:space="preserve" x="34.6067" y="256.179" fill="black" font-size="18.1201" font-family="Helvetica">25</text>
<text xml:space="preserve" x="34.6067" y="207.672" fill="black" font-size="18.1201" font-family="Helvetica">30</text>
<text xml:space="preserve" x="34.6067" y="159.165" fill="black" font-size="18.1201" font-family="Helvetica">35</text>
<text xml:space="preserve" x="34.6067" y="109.899" fill="black" font-size="18.1201" font-family="Helvetica">40</text>
<text xml:space="preserve" x="34.6067" y="61.3921" fill="black" font-size="18.1201" font-family="Helvetica">45</text>
<g transform="rotate(-90,21.7219,87.9195)">
<text xml:space="preserve" x="21.7219" y="87.9195" fill="black" font-size="18.1201" font-family="Helvetica">Npe</text>
</g>
<path d="M77.8085,350.937v -0.38644" fill="none" stroke="black"/>
<path d="M76.2927,350.551h 3.03171" fill="none" stroke="black"/>
<path d="M77.8085,350.937v 0.38644" fill="none" stroke="black"/>
<path d="M76.2927,351.324h 3.03171" fill="none" stroke="black"/>
<path d="M94.9882,345.561v -0.393352" fill="none" stroke="black"/>
<path d="M93.4723,345.168h 3.03171" fill="none" stroke="black"/>
<path d="M94.9882,345.561v 0.393352" fill="none" stroke="black"/>
<path d="M93.4723,345.954h 3.03171" fill="none" stroke="black"/>
<path d="M112.168,342.404v -0.408519" fill="none" stroke="black"/>
<path d="M110.652,341.996h 3.03171" fill="none" stroke="black"/>
<path d="M112.168,342.404v 0.408519" fill="none" stroke="black"/>
<path d="M110.652,342.813h 3.03171" fill="none" stroke="black"/>
<path d="M129.348,338.005v -0.404658" fill="none" stroke="black"/>
<path d="M127.832,337.6h 3.03171" fill="none" stroke="black"/>
<path d="M129.348,338.005v 0.404658" fill="none" stroke="black"/>
<path d="M127.832,338.409h 3.03171" fill="none" stroke="black"/>
<path d="M146.527,332.173v -0.426739" fill="none" stroke="black"/>
<path d="M145.011,331.746h 3.03171" fill="none" stroke="black"/>
<path d="M146.527,332.173v 0.426739" fill="none" stroke="black"/>
<path d="M145.011,332.6h 3.03171" fill="none" stroke="black"/>
<path d="M163.707,324.743v -0.419972" fill="none" stroke="black"/>
<path d="M162.191,324.323h 3.03171" fill="none" stroke="black"/>
<path d="M163.707,324.743v 0.419972" fill="none" stroke="black"/>
<path d="M162.191,325.163h 3.03171" fill="none" stroke="black"/>
<path d="M180.887,316.479v -0.428989" fill="none" stroke="black"/>
<path d="M179.371,316.05h 3.03171" fill="none" stroke="black"/>
<path d="M180.887,316.479v 0.428989" fill="none" stroke="black"/>
<path d="M179.371,316.908h 3.03171" fill="none" stroke="black"/>
<path d="M198.066,307.095v -0.444511" fill="none" stroke="black"/>
<path d="M196.55,306.65h 3.03171" fill="none" stroke="black"/>
<path d="M198.066,307.095v 0.444511" fill="none" stroke="black"/>
<path d="M196.55,307.539h 3.03171" fill="none" stroke="black"/>
<path d="M215.246,299.52v -0.460492" fill="none" stroke="black"/>
<path d="M213.73,299.059h 3.03171" fill="none" stroke="black"/>
<path d="M215.246,299.52v 0.460492" fill="none" stroke="black"/>
<path d="M213.73,299.98h 3.03171" fill="none" stroke="black"/>
<path d="M232.426,295.655v -0.4582" fill="none" stroke="black"/>
<path d="M230.91,295.196h 3.03171" fill="none" stroke="black"/>
<path d="M232.426,295.655v 0.4582" fill="none" stroke="black"/>
<path d="M230.91,296.113h 3.03171" fill="none" stroke="black"/>
<path d="M249.605,287.493v -0.460709" fill="none" stroke="black"/>
<path d="M248.089,287.033h 3.03171" fill="none" stroke="black"/>
<path d="M249.605,287.493v 0.460709" fill="none" stroke="black"/>
<path d="M248.089,287.954h 3.03171" fill="none" stroke="black"/>
<path d="M266.785,281.881v -0.474757" fill="none" stroke="black"/>
<path d="M265.269,281.406h 3.03171" fill="none" stroke="black"/>
<path d="M266.785,281.881v 0.474757" fill="none" stroke="black"/>
<path d="M265.269,282.356h 3.03171" fill="none" stroke="black"/>
<path d="M283.965,276.086v -0.484601" fill="none" stroke="black"/>
<path d="M282.449,275.602h 3.03171" fill="none" stroke="black"/>
<path d="M283.965,276.086v 0.484601" fill="none" stroke="black"/>
<path d="M282.449,276.571h 3.03171" fill="none" stroke="black"/>
<path d="M301.144,271.029v -0.491036" fill="none" stroke="black"/>
<path d="M299.628,270.538h 3.03171" fill="none" stroke="black"/>
<path d="M301.144,271.029v 0.491036" fill="none" stroke="black"/>
<path d="M299.628,271.52h 3.03171" fill="none" stroke="black"/>
<path d="M318.324,262.432v -0.493314" fill="none" stroke="black"/>
<path d="M316.808,261.939h 3.03171" fill="none" stroke="black"/>
<path d="M318.324,262.432v 0.493314" fill="none" stroke="black"/>
<path d="M316.808,262.925h 3.03171" fill="none" stroke="black"/>
<path d="M335.504,258.589v -0.500806" fill="none" stroke="black"/>
<path d="M333.988,258.088h 3.03171" fill="none" stroke="black"/>
<path d="M335.504,258.589v 0.500806" fill="none" stroke="black"/>
<path d="M333.988,259.09h 3.03171" fill="none" stroke="black"/>
<path d="M352.683,252.097v -0.506735" fill="none" stroke="black"/>
<path d="M351.167,251.59h 3.03171" fill="none" stroke="black"/>
<path d="M352.683,252.097v 0.506735" fill="none" stroke="black"/>
<path d="M351.167,252.604h 3.03171" fill="none" stroke="black"/>
<path d="M369.863,247.346v -0.512181" fill="none" stroke="black"/>
<path d="M368.347,246.834h 3.03171" fill="none" stroke="black"/>
<path d="M369.863,247.346v 0.512181" fill="none" stroke="black"/>
<path d="M368.347,247.858h 3.03171" fill="none" stroke="black"/>
<path d="M387.043,253.392v -0.506494" fill="none" stroke="black"/>
<path d="M385.527,252.885h 3.03171" fill="none" stroke="black"/>
<path d="M387.043,253.392v 0.506494" fill="none" stroke="black"/>
<path d="M385.527,253.898h 3.03171" fill="none" stroke="black"/>
<path d="M404.222,259.111v -0.502" fill="none" stroke="black"/>
<path d="M402.706,258.609h 3.03171" fill="none" stroke="black"/>
<path d="M404.222,259.111v 0.502" fill="none" stroke="black"/>
<path d="M402.706,259.613h 3.03171" fill="none" stroke="black"/>
<path d="M421.402,257.609v -0.504954" fill="none" stroke="black"/>
<path d="M419.886,257.104h 3.03171" fill="none" stroke="black"/>
<path d="M421.402,257.609v 0.504954" fill="none" stroke="black"/>
<path d="M419.886,258.114h 3.03171" fill="none" stroke="black"/>
<path d="M438.582,271.931v -0.481914" fill="none" stroke="black"/>
<path d="M437.066,271.449h 3.03171" fill="none" stroke="black"/>
<path d="M438.582,271.931v 0.481914" fill="none" stroke="black"/>
<path d="M437.066,272.413h 3.03171" fill="none" stroke="black"/>
<path d="M455.761,315.38v -0.426855" fill="none" stroke="black"/>
<path d="M454.245,314.953h 3.03171" fill="none" stroke="black"/>
<path d="M455.761,315.38v 0.426855" fill="none" stroke="black"/>
<path d="M454.245,315.807h 3.03171" fill="none" stroke="black"/>
<path d="M472.941,360.813v -0.37401" fill="none" stroke="black"/>
<path d="M471.425,360.439h 3.03171" fill="none" stroke="black"/>
<path d="M472.941,360.813v 0.37401" fill="none" stroke="black"/>
<path d="M471.425,361.187h 3.03171" fill="none" stroke="black"/>
<path d="M490.121,407.608v -0.300459" fill="none" stroke="black"/>
<path d="M488.605,407.308h 3.03171" fill="none" stroke="black"/>
<path d="M490.121,407.608v 0.300459" fill="none" stroke="black"/>
<path d="M488.605,407.909h 3.03171" fill="none" stroke="black"/>
<path d="M77.8085,350.937l 17.1797, -5.37618l 17.1797, -3.15683l 17.1797, -4.39967l 17.1797, -5.83175l 17.1797, -7.42968l 17.1797, -8.26376l 17.1797, -9.38465l 17.1797, -7.57504l 17.1797, -3.86507l 17.1797, -8.16133l 17.1797, -5.61226l 17.1797,
 -5.79468l 17.1797, -5.05718l 17.1797, -8.5974l 17.1797, -3.84264l 17.1797, -6.49219l 17.1797, -4.75086l 17.1797, 6.0454l 17.1797, 5.71957l 17.1797, -1.50233l 17.1797, 14.3218l 17.1797, 43.4494l 17.1797, 45.4327l 17.1797, 46.7955" fill="none"
 stroke="black"/>
<g stroke="black" stroke-width="1" fill="black">
<circle cx="77.8085" cy="350.937" r="0.121268"/>
<circle cx="94.9882" cy="345.561" r="0.121268"/>
<circle cx="112.168" cy="342.404" r="0.121268"/>
<circle cx="129.348" cy="338.005" r="0.121268"/>
<circle cx="146.527" cy="332.173" r="0.121268"/>
<circle cx="163.707" cy="324.743" r="0.121268"/>
<circle cx="180.887" cy="316.479" r="0.121268"/>
<circle cx="198.066" cy="307.095" r="0.121268"/>
<circle cx="215.246" cy="299.52" r="0.121268"/>
<circle cx="232.426" cy="295.655" r="0.121268"/>
<circle cx="249.605" cy="287.493" r="0.121268"/>
<circle cx="266.785" cy="281.881" r="0.121268"/>
<circle cx="283.965" cy="276.086" r="0.121268"/>
<circle cx="301.144" cy="271.029" r="0.121268"/>
<circle cx="318.324" cy="262.432" r="0.121268"/>
<circle cx="335.504" cy="258.589" r="0.121268"/>
<circle cx="352.683" cy="252.097" r="0.121268"/>
<circle cx="369.863" cy="247.346" r="0.121268"/>
<circle cx="387.043" cy="253.392" r="0.121268"/>
<circle cx="404.222" cy="259.111" r="0.121268"/>
<circle cx="421.402" cy="257.609" r="0.121268"/>
<circle cx="438.582" cy="271.931" r="0.121268"/>
<circle cx="455.761" cy="315.38" r="0.121268"/>
<circle cx="472.941" cy="360.813" r="0.121268"/>
<circle cx="490.121" cy="407.608" r="0.121268"/>
</g>
<path d="M77.8085,343.005l 34.3593, -4.43321l 51.539, -12.1182l 51.539, -22.0429l 34.3593, -17.0495l 34.3593, -22.1666l 51.539, 15.0091l 42.9492, -8.07743l 42.9492, 16.0767" fill="none" stroke="#ff0000"/>
<g stroke="#ff0000" stroke-width="1" fill="none">
<line x1="76.8085" y1="343.005" x2="77.8085" y2="343.005"/>
<line x1="111.168" y1="338.572" x2="112.168" y2="338.572"/>
<line x1="162.707" y1="326.454" x2="163.707" y2="326.454"/>
<line x1="214.246" y1="304.411" x2="215.246" y2="304.411"/>
<line x1="248.605" y1="287.362" x2="249.605" y2="287.362"/>
<line x1="282.965" y1="265.195" x2="283.965" y2="265.195"/>
<line x1="334.504" y1="280.204" x2="335.504" y2="280.204"/>
<line x1="377.453" y1="272.127" x2="378.453" y2="272.127"/>
<line x1="420.402" y1="288.203" x2="421.402" y2="288.203"/>
</g>
<rect x="57.1929" y="54.8739" width="198.425" height="65.8487" fill="white"/>
<path d="M57.1929,120.723h 198.425" fill="none" stroke="black"/>
<path d="M255.618,120.723v -65.8487" fill="none" stroke="black"/>
<path d="M255.618,54.8739h -198.425" fill="none" stroke="black"/>
<path d="M57.1929,54.8739v 65.8487" fill="none" stroke="black"/>
<text xml:space="preserve" x="106.61" y="75.7927" fill="black" font-size="13.9293" font-family="Helvetica">sim(DAVIS)</text>
<path d="M64.6339,71.3361h 34.7244" fill="none" stroke="black"/>
<g stroke="black" stroke-width="1" fill="black">
<circle cx="81.9961" cy="71.3361" r="0.121268"/>
</g>
<text xml:space="preserve" x="106.61" y="108.384" fill="black" font-size="13.9293" font-family="Helvetica">beam test(normalized)</text>
<path d="M64.6339,104.26h 34.7244" fill="none" stroke="#ff0000"/>
<g stroke="#ff0000" stroke-width="1" fill="none">
<line x1="80.9961" y1="104.26" x2="81.9961" y2="104.26"/>
</g>
<text xml:space="preserve" x="103.578" y="23.4957" fill="black" font-size="16.421" font-family="Helvetica">500 MeV/c electron incident at 40 degrees(TYPEC)</text></svg>
