<?xml version="1.0" standalone="no"?>
<svg width="567.429" height="549.239" viewBox="0 0 567.429 549.239" xmlns="http://www.w3.org/2000/svg" shape-rendering="crispEdges">
<title>
anal_davis_c1.svg
</title>
<desc>
Creator: ROOT Version 6.16/00
CreationDate: Sun Nov 17 16:08:40 2019</desc>
<defs>
</defs>
<rect x="0.5" y="0" width="566.929" height="548.739" fill="white"/>
<rect x="57.1929" y="54.8739" width="453.543" height="438.991" fill="white"/>
<rect x="57.1929" y="54.8739" width="453.543" height="438.991" fill="none" stroke="black"/>
<rect x="57.1929" y="54.8739" width="453.543" height="438.991" fill="white"/>
<rect x="57.1929" y="54.8739" width="453.543" height="438.991" fill="none" stroke="black"/>
<path d="M57.1929,493.865h 453.543" fill="none" stroke="black"/>
<path d="M77.8085,54.8739v 438.991" fill="none" stroke="black" stroke-dasharray=" 1, 2"/>
<path d="M163.707,54.8739v 438.991" fill="none" stroke="black" stroke-dasharray=" 1, 2"/>
<path d="M249.605,54.8739v 438.991" fill="none" stroke="black" stroke-dasharray=" 1, 2"/>
<path d="M335.504,54.8739v 438.991" fill="none" stroke="black" stroke-dasharray=" 1, 2"/>
<path d="M421.402,54.8739v 438.991" fill="none" stroke="black" stroke-dasharray=" 1, 2"/>
<path d="M507.3,54.8739v 438.991" fill="none" stroke="black" stroke-dasharray=" 1, 2"/>
<path d="M77.8085,54.8739v 438.991" fill="none" stroke="black" stroke-dasharray=" 1, 2"/>
<path d="M507.3,54.8739v 438.991" fill="none" stroke="black" stroke-dasharray=" 1, 2"/>
<path d="M57.1929,493.865v -438.991" fill="none" stroke="black"/>
<path d="M510.736,493.865h -453.543" fill="none" stroke="black" stroke-dasharray=" 1, 2"/>
<path d="M510.736,445.088h -453.543" fill="none" stroke="black" stroke-dasharray=" 1, 2"/>
<path d="M510.736,396.311h -453.543" fill="none" stroke="black" stroke-dasharray=" 1, 2"/>
<path d="M510.736,347.535h -453.543" fill="none" stroke="black" stroke-dasharray=" 1, 2"/>
<path d="M510.736,298.758h -453.543" fill="none" stroke="black" stroke-dasharray=" 1, 2"/>
<path d="M510.736,249.981h -453.543" fill="none" stroke="black" stroke-dasharray=" 1, 2"/>
<path d="M510.736,201.204h -453.543" fill="none" stroke="black" stroke-dasharray=" 1, 2"/>
<path d="M510.736,152.427h -453.543" fill="none" stroke="black" stroke-dasharray=" 1, 2"/>
<path d="M510.736,103.651h -453.543" fill="none" stroke="black" stroke-dasharray=" 1, 2"/>
<path d="M510.736,54.8739h -453.543" fill="none" stroke="black" stroke-dasharray=" 1, 2"/>
<path d="M57.1929,493.865h 453.543" fill="none" stroke="black"/>
<path d="M77.8085,480.695v 13.1697" fill="none" stroke="black"/>
<path d="M94.9882,487.28v 6.58487" fill="none" stroke="black"/>
<path d="M112.168,487.28v 6.58487" fill="none" stroke="black"/>
<path d="M129.348,487.28v 6.58487" fill="none" stroke="black"/>
<path d="M146.527,487.28v 6.58487" fill="none" stroke="black"/>
<path d="M163.707,480.695v 13.1697" fill="none" stroke="black"/>
<path d="M180.887,487.28v 6.58487" fill="none" stroke="black"/>
<path d="M198.066,487.28v 6.58487" fill="none" stroke="black"/>
<path d="M215.246,487.28v 6.58487" fill="none" stroke="black"/>
<path d="M232.426,487.28v 6.58487" fill="none" stroke="black"/>
<path d="M249.605,480.695v 13.1697" fill="none" stroke="black"/>
<path d="M266.785,487.28v 6.58487" fill="none" stroke="black"/>
<path d="M283.965,487.28v 6.58487" fill="none" stroke="black"/>
<path d="M301.144,487.28v 6.58487" fill="none" stroke="black"/>
<path d="M318.324,487.28v 6.58487" fill="none" stroke="black"/>
<path d="M335.504,480.695v 13.1697" fill="none" stroke="black"/>
<path d="M352.683,487.28v 6.58487" fill="none" stroke="black"/>
<path d="M369.863,487.28v 6.58487" fill="none" stroke="black"/>
<path d="M387.043,487.28v 6.58487" fill="none" stroke="black"/>
<path d="M404.222,487.28v 6.58487" fill="none" stroke="black"/>
<path d="M421.402,480.695v 13.1697" fill="none" stroke="black"/>
<path d="M438.582,487.28v 6.58487" fill="none" stroke="black"/>
<path d="M455.761,487.28v 6.58487" fill="none" stroke="black"/>
<path d="M472.941,487.28v 6.58487" fill="none" stroke="black"/>
<path d="M490.121,487.28v 6.58487" fill="none" stroke="black"/>
<path d="M507.3,480.695v 13.1697" fill="none" stroke="black"/>
<path d="M77.8085,480.695v 13.1697" fill="none" stroke="black"/>
<path d="M60.6288,487.28v 6.58487" fill="none" stroke="black"/>
<path d="M507.3,480.695v 13.1697" fill="none" stroke="black"/>
<text xml:space="preserve" x="72.503" y="511.601" fill="black" font-size="18.1201" font-family="Helvetica">0</text>
<text xml:space="preserve" x="153.601" y="511.601" fill="black" font-size="18.1201" font-family="Helvetica">50</text>
<text xml:space="preserve" x="233.941" y="511.601" fill="black" font-size="18.1201" font-family="Helvetica">100</text>
<text xml:space="preserve" x="320.345" y="511.601" fill="black" font-size="18.1201" font-family="Helvetica">150</text>
<text xml:space="preserve" x="405.991" y="511.601" fill="black" font-size="18.1201" font-family="Helvetica">200</text>
<text xml:space="preserve" x="491.636" y="511.601" fill="black" font-size="18.1201" font-family="Helvetica">250</text>
<text xml:space="preserve" x="338.535" y="529.791" fill="black" font-size="18.1201" font-family="Helvetica">incident position(mm)</text>
<path d="M57.1929,493.865v -438.991" fill="none" stroke="black"/>
<path d="M70.7992,493.865h -13.6063" fill="none" stroke="black"/>
<path d="M63.9961,484.11h -6.80315" fill="none" stroke="black"/>
<path d="M63.9961,474.354h -6.80315" fill="none" stroke="black"/>
<path d="M63.9961,464.599h -6.80315" fill="none" stroke="black"/>
<path d="M63.9961,454.844h -6.80315" fill="none" stroke="black"/>
<path d="M70.7992,445.088h -13.6063" fill="none" stroke="black"/>
<path d="M63.9961,435.333h -6.80315" fill="none" stroke="black"/>
<path d="M63.9961,425.578h -6.80315" fill="none" stroke="black"/>
<path d="M63.9961,415.822h -6.80315" fill="none" stroke="black"/>
<path d="M63.9961,406.067h -6.80315" fill="none" stroke="black"/>
<path d="M70.7992,396.311h -13.6063" fill="none" stroke="black"/>
<path d="M63.9961,386.556h -6.80315" fill="none" stroke="black"/>
<path d="M63.9961,376.801h -6.80315" fill="none" stroke="black"/>
<path d="M63.9961,367.045h -6.80315" fill="none" stroke="black"/>
<path d="M63.9961,357.29h -6.80315" fill="none" stroke="black"/>
<path d="M70.7992,347.535h -13.6063" fill="none" stroke="black"/>
<path d="M63.9961,337.779h -6.80315" fill="none" stroke="black"/>
<path d="M63.9961,328.024h -6.80315" fill="none" stroke="black"/>
<path d="M63.9961,318.269h -6.80315" fill="none" stroke="black"/>
<path d="M63.9961,308.513h -6.80315" fill="none" stroke="black"/>
<path d="M70.7992,298.758h -13.6063" fill="none" stroke="black"/>
<path d="M63.9961,289.003h -6.80315" fill="none" stroke="black"/>
<path d="M63.9961,279.247h -6.80315" fill="none" stroke="black"/>
<path d="M63.9961,269.492h -6.80315" fill="none" stroke="black"/>
<path d="M63.9961,259.736h -6.80315" fill="none" stroke="black"/>
<path d="M70.7992,249.981h -13.6063" fill="none" stroke="black"/>
<path d="M63.9961,240.226h -6.80315" fill="none" stroke="black"/>
<path d="M63.9961,230.47h -6.80315" fill="none" stroke="black"/>
<path d="M63.9961,220.715h -6.80315" fill="none" stroke="black"/>
<path d="M63.9961,210.96h -6.80315" fill="none" stroke="black"/>
<path d="M70.7992,201.204h -13.6063" fill="none" stroke="black"/>
<path d="M63.9961,191.449h -6.80315" fill="none" stroke="black"/>
<path d="M63.9961,181.694h -6.80315" fill="none" stroke="black"/>
<path d="M63.9961,171.938h -6.80315" fill="none" stroke="black"/>
<path d="M63.9961,162.183h -6.80315" fill="none" stroke="black"/>
<path d="M70.7992,152.427h -13.6063" fill="none" stroke="black"/>
<path d="M63.9961,142.672h -6.80315" fill="none" stroke="black"/>
<path d="M63.9961,132.917h -6.80315" fill="none" stroke="black"/>
<path d="M63.9961,123.161h -6.80315" fill="none" stroke="black"/>
<path d="M63.9961,113.406h -6.80315" fill="none" stroke="black"/>
<path d="M70.7992,103.651h -13.6063" fill="none" stroke="black"/>
<path d="M63.9961,93.8953h -6.80315" fill="none" stroke="black"/>
<path d="M63.9961,84.14h -6.80315" fill="none" stroke="black"/>
<path d="M63.9961,74.3846h -6.80315" fill="none" stroke="black"/>
<path d="M63.9961,64.6293h -6.80315" fill="none" stroke="black"/>
<path d="M70.7992,54.8739h -13.6063" fill="none" stroke="black"/>
<text xml:space="preserve" x="44.4597" y="500.232" fill="black" font-size="18.1201" font-family="Helvetica">0</text>
<text xml:space="preserve" x="44.4597" y="451.724" fill="black" font-size="18.1201" font-family="Helvetica">5</text>
<text xml:space="preserve" x="34.6067" y="402.459" fill="black" font-size="18.1201" font-family="Helvetica">10</text>
<text xml:space="preserve" x="34.6067" y="353.952" fill="black" font-size="18.1201" font-family="Helvetica">15</text>
<text xml:space="preserve" x="34.6067" y="305.444" fill="black" font-size="18.1201" font-family="Helvetica">20</text>
<text xml:space="preserve" x="34.6067" y="256.179" fill="black" font-size="18.1201" font-family="Helvetica">25</text>
<text xml:space="preserve" x="34.6067" y="207.672" fill="black" font-size="18.1201" font-family="Helvetica">30</text>
<text xml:space="preserve" x="34.6067" y="159.165" fill="black" font-size="18.1201" font-family="Helvetica">35</text>
<text xml:space="preserve" x="34.6067" y="109.899" fill="black" font-size="18.1201" font-family="Helvetica">40</text>
<text xml:space="preserve" x="34.6067" y="61.3921" fill="black" font-size="18.1201" font-family="Helvetica">45</text>
<g transform="rotate(-90,21.7219,87.9195)">
<text xml:space="preserve" x="21.7219" y="87.9195" fill="black" font-size="18.1201" font-family="Helvetica">Npe</text>
</g>
<path d="M77.8085,320.643v -0.425295" fill="none" stroke="black"/>
<path d="M76.2927,320.218h 3.03171" fill="none" stroke="black"/>
<path d="M77.8085,320.643v 0.425295" fill="none" stroke="black"/>
<path d="M76.2927,321.068h 3.03171" fill="none" stroke="black"/>
<path d="M94.9882,316.392v -0.437656" fill="none" stroke="black"/>
<path d="M93.4723,315.954h 3.03171" fill="none" stroke="black"/>
<path d="M94.9882,316.392v 0.437656" fill="none" stroke="black"/>
<path d="M93.4723,316.829h 3.03171" fill="none" stroke="black"/>
<path d="M112.168,312.556v -0.441849" fill="none" stroke="black"/>
<path d="M110.652,312.114h 3.03171" fill="none" stroke="black"/>
<path d="M112.168,312.556v 0.441849" fill="none" stroke="black"/>
<path d="M110.652,312.998h 3.03171" fill="none" stroke="black"/>
<path d="M129.348,307.704v -0.453271" fill="none" stroke="black"/>
<path d="M127.832,307.251h 3.03171" fill="none" stroke="black"/>
<path d="M129.348,307.704v 0.453271" fill="none" stroke="black"/>
<path d="M127.832,308.158h 3.03171" fill="none" stroke="black"/>
<path d="M146.527,300.697v -0.455165" fill="none" stroke="black"/>
<path d="M145.011,300.242h 3.03171" fill="none" stroke="black"/>
<path d="M146.527,300.697v 0.455165" fill="none" stroke="black"/>
<path d="M145.011,301.152h 3.03171" fill="none" stroke="black"/>
<path d="M163.707,290.868v -0.474649" fill="none" stroke="black"/>
<path d="M162.191,290.393h 3.03171" fill="none" stroke="black"/>
<path d="M163.707,290.868v 0.474649" fill="none" stroke="black"/>
<path d="M162.191,291.342h 3.03171" fill="none" stroke="black"/>
<path d="M180.887,279.314v -0.482535" fill="none" stroke="black"/>
<path d="M179.371,278.832h 3.03171" fill="none" stroke="black"/>
<path d="M180.887,279.314v 0.482535" fill="none" stroke="black"/>
<path d="M179.371,279.797h 3.03171" fill="none" stroke="black"/>
<path d="M198.066,270.84v -0.494481" fill="none" stroke="black"/>
<path d="M196.55,270.345h 3.03171" fill="none" stroke="black"/>
<path d="M198.066,270.84v 0.494481" fill="none" stroke="black"/>
<path d="M196.55,271.334h 3.03171" fill="none" stroke="black"/>
<path d="M215.246,260.364v -0.501537" fill="none" stroke="black"/>
<path d="M213.73,259.862h 3.03171" fill="none" stroke="black"/>
<path d="M215.246,260.364v 0.501537" fill="none" stroke="black"/>
<path d="M213.73,260.865h 3.03171" fill="none" stroke="black"/>
<path d="M232.426,244.455v -0.523347" fill="none" stroke="black"/>
<path d="M230.91,243.931h 3.03171" fill="none" stroke="black"/>
<path d="M232.426,244.455v 0.523347" fill="none" stroke="black"/>
<path d="M230.91,244.978h 3.03171" fill="none" stroke="black"/>
<path d="M249.605,231.337v -0.538023" fill="none" stroke="black"/>
<path d="M248.089,230.799h 3.03171" fill="none" stroke="black"/>
<path d="M249.605,231.337v 0.538023" fill="none" stroke="black"/>
<path d="M248.089,231.875h 3.03171" fill="none" stroke="black"/>
<path d="M266.785,220.567v -0.544838" fill="none" stroke="black"/>
<path d="M265.269,220.022h 3.03171" fill="none" stroke="black"/>
<path d="M266.785,220.567v 0.544838" fill="none" stroke="black"/>
<path d="M265.269,221.112h 3.03171" fill="none" stroke="black"/>
<path d="M283.965,211.299v -0.556384" fill="none" stroke="black"/>
<path d="M282.449,210.743h 3.03171" fill="none" stroke="black"/>
<path d="M283.965,211.299v 0.556384" fill="none" stroke="black"/>
<path d="M282.449,211.856h 3.03171" fill="none" stroke="black"/>
<path d="M301.144,206.133v -0.556026" fill="none" stroke="black"/>
<path d="M299.628,205.577h 3.03171" fill="none" stroke="black"/>
<path d="M301.144,206.133v 0.556026" fill="none" stroke="black"/>
<path d="M299.628,206.689h 3.03171" fill="none" stroke="black"/>
<path d="M318.324,205.782v -0.561919" fill="none" stroke="black"/>
<path d="M316.808,205.221h 3.03171" fill="none" stroke="black"/>
<path d="M318.324,205.782v 0.561919" fill="none" stroke="black"/>
<path d="M316.808,206.344h 3.03171" fill="none" stroke="black"/>
<path d="M335.504,203.878v -0.555478" fill="none" stroke="black"/>
<path d="M333.988,203.323h 3.03171" fill="none" stroke="black"/>
<path d="M335.504,203.878v 0.555478" fill="none" stroke="black"/>
<path d="M333.988,204.434h 3.03171" fill="none" stroke="black"/>
<path d="M352.683,188.288v -0.558942" fill="none" stroke="black"/>
<path d="M351.167,187.729h 3.03171" fill="none" stroke="black"/>
<path d="M352.683,188.288v 0.558942" fill="none" stroke="black"/>
<path d="M351.167,188.847h 3.03171" fill="none" stroke="black"/>
<path d="M369.863,171.807v -0.586369" fill="none" stroke="black"/>
<path d="M368.347,171.22h 3.03171" fill="none" stroke="black"/>
<path d="M369.863,171.807v 0.586369" fill="none" stroke="black"/>
<path d="M368.347,172.393h 3.03171" fill="none" stroke="black"/>
<path d="M387.043,169.715v -0.607847" fill="none" stroke="black"/>
<path d="M385.527,169.107h 3.03171" fill="none" stroke="black"/>
<path d="M387.043,169.715v 0.607847" fill="none" stroke="black"/>
<path d="M385.527,170.323h 3.03171" fill="none" stroke="black"/>
<path d="M404.222,181.185v -0.591982" fill="none" stroke="black"/>
<path d="M402.706,180.593h 3.03171" fill="none" stroke="black"/>
<path d="M404.222,181.185v 0.591982" fill="none" stroke="black"/>
<path d="M402.706,181.777h 3.03171" fill="none" stroke="black"/>
<path d="M421.402,193.662v -0.57192" fill="none" stroke="black"/>
<path d="M419.886,193.09h 3.03171" fill="none" stroke="black"/>
<path d="M421.402,193.662v 0.57192" fill="none" stroke="black"/>
<path d="M419.886,194.234h 3.03171" fill="none" stroke="black"/>
<path d="M438.582,213.021v -0.5511" fill="none" stroke="black"/>
<path d="M437.066,212.47h 3.03171" fill="none" stroke="black"/>
<path d="M438.582,213.021v 0.5511" fill="none" stroke="black"/>
<path d="M437.066,213.572h 3.03171" fill="none" stroke="black"/>
<path d="M455.761,262.517v -0.493769" fill="none" stroke="black"/>
<path d="M454.245,262.023h 3.03171" fill="none" stroke="black"/>
<path d="M455.761,262.517v 0.493769" fill="none" stroke="black"/>
<path d="M454.245,263.01h 3.03171" fill="none" stroke="black"/>
<path d="M472.941,305.119v -0.444145" fill="none" stroke="black"/>
<path d="M471.425,304.675h 3.03171" fill="none" stroke="black"/>
<path d="M472.941,305.119v 0.444145" fill="none" stroke="black"/>
<path d="M471.425,305.563h 3.03171" fill="none" stroke="black"/>
<path d="M490.121,349.026v -0.399056" fill="none" stroke="black"/>
<path d="M488.605,348.627h 3.03171" fill="none" stroke="black"/>
<path d="M490.121,349.026v 0.399056" fill="none" stroke="black"/>
<path d="M488.605,349.425h 3.03171" fill="none" stroke="black"/>
<path d="M77.8085,320.643l 17.1797, -4.25139l 17.1797, -3.83581l 17.1797, -4.85134l 17.1797, -7.00727l 17.1797, -9.8295l 17.1797, -11.5533l 17.1797, -8.47448l 17.1797, -10.4763l 17.1797, -15.909l 17.1797, -13.118l 17.1797, -10.7699l 17.1797,
 -9.26756l 17.1797, -5.16647l 17.1797, -0.350217l 17.1797, -1.90425l 17.1797, -15.59l 17.1797, -16.4817l 17.1797, -2.09155l 17.1797, 11.4704l 17.1797, 12.4771l 17.1797, 19.3585l 17.1797, 49.4958l 17.1797, 42.6026l 17.1797, 43.9069" fill="none"
 stroke="black"/>
<g stroke="black" stroke-width="1" fill="black">
<circle cx="77.8085" cy="320.643" r="0.121268"/>
<circle cx="94.9882" cy="316.392" r="0.121268"/>
<circle cx="112.168" cy="312.556" r="0.121268"/>
<circle cx="129.348" cy="307.704" r="0.121268"/>
<circle cx="146.527" cy="300.697" r="0.121268"/>
<circle cx="163.707" cy="290.868" r="0.121268"/>
<circle cx="180.887" cy="279.314" r="0.121268"/>
<circle cx="198.066" cy="270.84" r="0.121268"/>
<circle cx="215.246" cy="260.364" r="0.121268"/>
<circle cx="232.426" cy="244.455" r="0.121268"/>
<circle cx="249.605" cy="231.337" r="0.121268"/>
<circle cx="266.785" cy="220.567" r="0.121268"/>
<circle cx="283.965" cy="211.299" r="0.121268"/>
<circle cx="301.144" cy="206.133" r="0.121268"/>
<circle cx="318.324" cy="205.782" r="0.121268"/>
<circle cx="335.504" cy="203.878" r="0.121268"/>
<circle cx="352.683" cy="188.288" r="0.121268"/>
<circle cx="369.863" cy="171.807" r="0.121268"/>
<circle cx="387.043" cy="169.715" r="0.121268"/>
<circle cx="404.222" cy="181.185" r="0.121268"/>
<circle cx="421.402" cy="193.662" r="0.121268"/>
<circle cx="438.582" cy="213.021" r="0.121268"/>
<circle cx="455.761" cy="262.517" r="0.121268"/>
<circle cx="472.941" cy="305.119" r="0.121268"/>
<circle cx="490.121" cy="349.026" r="0.121268"/>
</g>
<path d="M77.8085,333.073v -0.411751" fill="none" stroke="#ff0000"/>
<path d="M76.2927,332.662h 3.03171" fill="none" stroke="#ff0000"/>
<path d="M77.8085,333.073v 0.411751" fill="none" stroke="#ff0000"/>
<path d="M76.2927,333.485h 3.03171" fill="none" stroke="#ff0000"/>
<path d="M94.9882,328.204v -0.415869" fill="none" stroke="#ff0000"/>
<path d="M93.4723,327.789h 3.03171" fill="none" stroke="#ff0000"/>
<path d="M94.9882,328.204v 0.415869" fill="none" stroke="#ff0000"/>
<path d="M93.4723,328.62h 3.03171" fill="none" stroke="#ff0000"/>
<path d="M112.168,323.822v -0.428321" fill="none" stroke="#ff0000"/>
<path d="M110.652,323.394h 3.03171" fill="none" stroke="#ff0000"/>
<path d="M112.168,323.822v 0.428321" fill="none" stroke="#ff0000"/>
<path d="M110.652,324.251h 3.03171" fill="none" stroke="#ff0000"/>
<path d="M129.348,317.63v -0.440582" fill="none" stroke="#ff0000"/>
<path d="M127.832,317.189h 3.03171" fill="none" stroke="#ff0000"/>
<path d="M129.348,317.63v 0.440582" fill="none" stroke="#ff0000"/>
<path d="M127.832,318.07h 3.03171" fill="none" stroke="#ff0000"/>
<path d="M146.527,310.316v -0.44417" fill="none" stroke="#ff0000"/>
<path d="M145.011,309.872h 3.03171" fill="none" stroke="#ff0000"/>
<path d="M146.527,310.316v 0.44417" fill="none" stroke="#ff0000"/>
<path d="M145.011,310.76h 3.03171" fill="none" stroke="#ff0000"/>
<path d="M163.707,300.48v -0.462438" fill="none" stroke="#ff0000"/>
<path d="M162.191,300.017h 3.03171" fill="none" stroke="#ff0000"/>
<path d="M163.707,300.48v 0.462438" fill="none" stroke="#ff0000"/>
<path d="M162.191,300.942h 3.03171" fill="none" stroke="#ff0000"/>
<path d="M180.887,289.651v -0.471066" fill="none" stroke="#ff0000"/>
<path d="M179.371,289.18h 3.03171" fill="none" stroke="#ff0000"/>
<path d="M180.887,289.651v 0.471066" fill="none" stroke="#ff0000"/>
<path d="M179.371,290.122h 3.03171" fill="none" stroke="#ff0000"/>
<path d="M198.066,277.109v -0.486496" fill="none" stroke="#ff0000"/>
<path d="M196.55,276.622h 3.03171" fill="none" stroke="#ff0000"/>
<path d="M198.066,277.109v 0.486496" fill="none" stroke="#ff0000"/>
<path d="M196.55,277.595h 3.03171" fill="none" stroke="#ff0000"/>
<path d="M215.246,265.796v -0.486294" fill="none" stroke="#ff0000"/>
<path d="M213.73,265.31h 3.03171" fill="none" stroke="#ff0000"/>
<path d="M215.246,265.796v 0.486294" fill="none" stroke="#ff0000"/>
<path d="M213.73,266.283h 3.03171" fill="none" stroke="#ff0000"/>
<path d="M232.426,254.709v -0.506794" fill="none" stroke="#ff0000"/>
<path d="M230.91,254.203h 3.03171" fill="none" stroke="#ff0000"/>
<path d="M232.426,254.709v 0.506794" fill="none" stroke="#ff0000"/>
<path d="M230.91,255.216h 3.03171" fill="none" stroke="#ff0000"/>
<path d="M249.605,243.218v -0.525591" fill="none" stroke="#ff0000"/>
<path d="M248.089,242.692h 3.03171" fill="none" stroke="#ff0000"/>
<path d="M249.605,243.218v 0.525591" fill="none" stroke="#ff0000"/>
<path d="M248.089,243.743h 3.03171" fill="none" stroke="#ff0000"/>
<path d="M266.785,233.455v -0.532576" fill="none" stroke="#ff0000"/>
<path d="M265.269,232.922h 3.03171" fill="none" stroke="#ff0000"/>
<path d="M266.785,233.455v 0.532576" fill="none" stroke="#ff0000"/>
<path d="M265.269,233.987h 3.03171" fill="none" stroke="#ff0000"/>
<path d="M283.965,223.641v -0.536762" fill="none" stroke="#ff0000"/>
<path d="M282.449,223.104h 3.03171" fill="none" stroke="#ff0000"/>
<path d="M283.965,223.641v 0.536762" fill="none" stroke="#ff0000"/>
<path d="M282.449,224.177h 3.03171" fill="none" stroke="#ff0000"/>
<path d="M301.144,216.651v -0.54633" fill="none" stroke="#ff0000"/>
<path d="M299.628,216.105h 3.03171" fill="none" stroke="#ff0000"/>
<path d="M301.144,216.651v 0.54633" fill="none" stroke="#ff0000"/>
<path d="M299.628,217.197h 3.03171" fill="none" stroke="#ff0000"/>
<path d="M318.324,212.84v -0.54037" fill="none" stroke="#ff0000"/>
<path d="M316.808,212.3h 3.03171" fill="none" stroke="#ff0000"/>
<path d="M318.324,212.84v 0.54037" fill="none" stroke="#ff0000"/>
<path d="M316.808,213.381h 3.03171" fill="none" stroke="#ff0000"/>
<path d="M335.504,219.588v -0.54953" fill="none" stroke="#ff0000"/>
<path d="M333.988,219.039h 3.03171" fill="none" stroke="#ff0000"/>
<path d="M335.504,219.588v 0.54953" fill="none" stroke="#ff0000"/>
<path d="M333.988,220.138h 3.03171" fill="none" stroke="#ff0000"/>
<path d="M352.683,202.186v -0.578463" fill="none" stroke="#ff0000"/>
<path d="M351.167,201.607h 3.03171" fill="none" stroke="#ff0000"/>
<path d="M352.683,202.186v 0.578463" fill="none" stroke="#ff0000"/>
<path d="M351.167,202.764h 3.03171" fill="none" stroke="#ff0000"/>
<path d="M369.863,173.674v -0.586402" fill="none" stroke="#ff0000"/>
<path d="M368.347,173.087h 3.03171" fill="none" stroke="#ff0000"/>
<path d="M369.863,173.674v 0.586402" fill="none" stroke="#ff0000"/>
<path d="M368.347,174.26h 3.03171" fill="none" stroke="#ff0000"/>
<path d="M387.043,157.428v -0.609928" fill="none" stroke="#ff0000"/>
<path d="M385.527,156.818h 3.03171" fill="none" stroke="#ff0000"/>
<path d="M387.043,157.428v 0.609928" fill="none" stroke="#ff0000"/>
<path d="M385.527,158.038h 3.03171" fill="none" stroke="#ff0000"/>
<path d="M404.222,180.799v -0.562921" fill="none" stroke="#ff0000"/>
<path d="M402.706,180.236h 3.03171" fill="none" stroke="#ff0000"/>
<path d="M404.222,180.799v 0.562921" fill="none" stroke="#ff0000"/>
<path d="M402.706,181.362h 3.03171" fill="none" stroke="#ff0000"/>
<path d="M421.402,205.117v -0.549832" fill="none" stroke="#ff0000"/>
<path d="M419.886,204.567h 3.03171" fill="none" stroke="#ff0000"/>
<path d="M421.402,205.117v 0.549832" fill="none" stroke="#ff0000"/>
<path d="M419.886,205.667h 3.03171" fill="none" stroke="#ff0000"/>
<path d="M438.582,234.294v -0.520495" fill="none" stroke="#ff0000"/>
<path d="M437.066,233.774h 3.03171" fill="none" stroke="#ff0000"/>
<path d="M438.582,234.294v 0.520495" fill="none" stroke="#ff0000"/>
<path d="M437.066,234.815h 3.03171" fill="none" stroke="#ff0000"/>
<path d="M455.761,288.122v -0.467785" fill="none" stroke="#ff0000"/>
<path d="M454.245,287.654h 3.03171" fill="none" stroke="#ff0000"/>
<path d="M455.761,288.122v 0.467785" fill="none" stroke="#ff0000"/>
<path d="M454.245,288.589h 3.03171" fill="none" stroke="#ff0000"/>
<path d="M472.941,337.31v -0.407722" fill="none" stroke="#ff0000"/>
<path d="M471.425,336.902h 3.03171" fill="none" stroke="#ff0000"/>
<path d="M472.941,337.31v 0.407722" fill="none" stroke="#ff0000"/>
<path d="M471.425,337.718h 3.03171" fill="none" stroke="#ff0000"/>
<path d="M490.121,386.237v -0.342304" fill="none" stroke="#ff0000"/>
<path d="M488.605,385.895h 3.03171" fill="none" stroke="#ff0000"/>
<path d="M490.121,386.237v 0.342304" fill="none" stroke="#ff0000"/>
<path d="M488.605,386.579h 3.03171" fill="none" stroke="#ff0000"/>
<path d="M77.8085,333.073l 17.1797, -4.8689l 17.1797, -4.38211l 17.1797, -6.1927l 17.1797, -7.31359l 17.1797, -9.83633l 17.1797, -10.8284l 17.1797, -12.5425l 17.1797, -11.3123l 17.1797, -11.087l 17.1797, -11.4918l 17.1797, -9.76316l 17.1797,
 -9.81389l 17.1797, -6.98971l 17.1797, -3.81044l 17.1797, 6.74778l 17.1797, -17.4026l 17.1797, -28.512l 17.1797, -16.2456l 17.1797, 23.3709l 17.1797, 24.3182l 17.1797, 29.1773l 17.1797, 53.8271l 17.1797, 49.1885l 17.1797, 48.927" fill="none"
 stroke="#ff0000"/>
<g stroke="#ff0000" stroke-width="1" fill="#ff0000">
<circle cx="77.8085" cy="333.073" r="0.121268"/>
<circle cx="94.9882" cy="328.204" r="0.121268"/>
<circle cx="112.168" cy="323.822" r="0.121268"/>
<circle cx="129.348" cy="317.63" r="0.121268"/>
<circle cx="146.527" cy="310.316" r="0.121268"/>
<circle cx="163.707" cy="300.48" r="0.121268"/>
<circle cx="180.887" cy="289.651" r="0.121268"/>
<circle cx="198.066" cy="277.109" r="0.121268"/>
<circle cx="215.246" cy="265.796" r="0.121268"/>
<circle cx="232.426" cy="254.709" r="0.121268"/>
<circle cx="249.605" cy="243.218" r="0.121268"/>
<circle cx="266.785" cy="233.455" r="0.121268"/>
<circle cx="283.965" cy="223.641" r="0.121268"/>
<circle cx="301.144" cy="216.651" r="0.121268"/>
<circle cx="318.324" cy="212.84" r="0.121268"/>
<circle cx="335.504" cy="219.588" r="0.121268"/>
<circle cx="352.683" cy="202.186" r="0.121268"/>
<circle cx="369.863" cy="173.674" r="0.121268"/>
<circle cx="387.043" cy="157.428" r="0.121268"/>
<circle cx="404.222" cy="180.799" r="0.121268"/>
<circle cx="421.402" cy="205.117" r="0.121268"/>
<circle cx="438.582" cy="234.294" r="0.121268"/>
<circle cx="455.761" cy="288.122" r="0.121268"/>
<circle cx="472.941" cy="337.31" r="0.121268"/>
<circle cx="490.121" cy="386.237" r="0.121268"/>
</g>
<path d="M77.8085,350.937v -0.38644" fill="none" stroke="#00ff00"/>
<path d="M76.2927,350.551h 3.03171" fill="none" stroke="#00ff00"/>
<path d="M77.8085,350.937v 0.38644" fill="none" stroke="#00ff00"/>
<path d="M76.2927,351.324h 3.03171" fill="none" stroke="#00ff00"/>
<path d="M94.9882,345.561v -0.393352" fill="none" stroke="#00ff00"/>
<path d="M93.4723,345.168h 3.03171" fill="none" stroke="#00ff00"/>
<path d="M94.9882,345.561v 0.393352" fill="none" stroke="#00ff00"/>
<path d="M93.4723,345.954h 3.03171" fill="none" stroke="#00ff00"/>
<path d="M112.168,342.404v -0.408519" fill="none" stroke="#00ff00"/>
<path d="M110.652,341.996h 3.03171" fill="none" stroke="#00ff00"/>
<path d="M112.168,342.404v 0.408519" fill="none" stroke="#00ff00"/>
<path d="M110.652,342.813h 3.03171" fill="none" stroke="#00ff00"/>
<path d="M129.348,338.005v -0.404658" fill="none" stroke="#00ff00"/>
<path d="M127.832,337.6h 3.03171" fill="none" stroke="#00ff00"/>
<path d="M129.348,338.005v 0.404658" fill="none" stroke="#00ff00"/>
<path d="M127.832,338.409h 3.03171" fill="none" stroke="#00ff00"/>
<path d="M146.527,332.173v -0.426739" fill="none" stroke="#00ff00"/>
<path d="M145.011,331.746h 3.03171" fill="none" stroke="#00ff00"/>
<path d="M146.527,332.173v 0.426739" fill="none" stroke="#00ff00"/>
<path d="M145.011,332.6h 3.03171" fill="none" stroke="#00ff00"/>
<path d="M163.707,324.743v -0.419972" fill="none" stroke="#00ff00"/>
<path d="M162.191,324.323h 3.03171" fill="none" stroke="#00ff00"/>
<path d="M163.707,324.743v 0.419972" fill="none" stroke="#00ff00"/>
<path d="M162.191,325.163h 3.03171" fill="none" stroke="#00ff00"/>
<path d="M180.887,316.479v -0.428989" fill="none" stroke="#00ff00"/>
<path d="M179.371,316.05h 3.03171" fill="none" stroke="#00ff00"/>
<path d="M180.887,316.479v 0.428989" fill="none" stroke="#00ff00"/>
<path d="M179.371,316.908h 3.03171" fill="none" stroke="#00ff00"/>
<path d="M198.066,307.095v -0.444511" fill="none" stroke="#00ff00"/>
<path d="M196.55,306.65h 3.03171" fill="none" stroke="#00ff00"/>
<path d="M198.066,307.095v 0.444511" fill="none" stroke="#00ff00"/>
<path d="M196.55,307.539h 3.03171" fill="none" stroke="#00ff00"/>
<path d="M215.246,299.52v -0.460492" fill="none" stroke="#00ff00"/>
<path d="M213.73,299.059h 3.03171" fill="none" stroke="#00ff00"/>
<path d="M215.246,299.52v 0.460492" fill="none" stroke="#00ff00"/>
<path d="M213.73,299.98h 3.03171" fill="none" stroke="#00ff00"/>
<path d="M232.426,295.655v -0.4582" fill="none" stroke="#00ff00"/>
<path d="M230.91,295.196h 3.03171" fill="none" stroke="#00ff00"/>
<path d="M232.426,295.655v 0.4582" fill="none" stroke="#00ff00"/>
<path d="M230.91,296.113h 3.03171" fill="none" stroke="#00ff00"/>
<path d="M249.605,287.493v -0.460709" fill="none" stroke="#00ff00"/>
<path d="M248.089,287.033h 3.03171" fill="none" stroke="#00ff00"/>
<path d="M249.605,287.493v 0.460709" fill="none" stroke="#00ff00"/>
<path d="M248.089,287.954h 3.03171" fill="none" stroke="#00ff00"/>
<path d="M266.785,281.881v -0.474757" fill="none" stroke="#00ff00"/>
<path d="M265.269,281.406h 3.03171" fill="none" stroke="#00ff00"/>
<path d="M266.785,281.881v 0.474757" fill="none" stroke="#00ff00"/>
<path d="M265.269,282.356h 3.03171" fill="none" stroke="#00ff00"/>
<path d="M283.965,276.086v -0.484601" fill="none" stroke="#00ff00"/>
<path d="M282.449,275.602h 3.03171" fill="none" stroke="#00ff00"/>
<path d="M283.965,276.086v 0.484601" fill="none" stroke="#00ff00"/>
<path d="M282.449,276.571h 3.03171" fill="none" stroke="#00ff00"/>
<path d="M301.144,271.029v -0.491036" fill="none" stroke="#00ff00"/>
<path d="M299.628,270.538h 3.03171" fill="none" stroke="#00ff00"/>
<path d="M301.144,271.029v 0.491036" fill="none" stroke="#00ff00"/>
<path d="M299.628,271.52h 3.03171" fill="none" stroke="#00ff00"/>
<path d="M318.324,262.432v -0.493314" fill="none" stroke="#00ff00"/>
<path d="M316.808,261.939h 3.03171" fill="none" stroke="#00ff00"/>
<path d="M318.324,262.432v 0.493314" fill="none" stroke="#00ff00"/>
<path d="M316.808,262.925h 3.03171" fill="none" stroke="#00ff00"/>
<path d="M335.504,258.589v -0.500806" fill="none" stroke="#00ff00"/>
<path d="M333.988,258.088h 3.03171" fill="none" stroke="#00ff00"/>
<path d="M335.504,258.589v 0.500806" fill="none" stroke="#00ff00"/>
<path d="M333.988,259.09h 3.03171" fill="none" stroke="#00ff00"/>
<path d="M352.683,252.097v -0.506735" fill="none" stroke="#00ff00"/>
<path d="M351.167,251.59h 3.03171" fill="none" stroke="#00ff00"/>
<path d="M352.683,252.097v 0.506735" fill="none" stroke="#00ff00"/>
<path d="M351.167,252.604h 3.03171" fill="none" stroke="#00ff00"/>
<path d="M369.863,247.346v -0.512181" fill="none" stroke="#00ff00"/>
<path d="M368.347,246.834h 3.03171" fill="none" stroke="#00ff00"/>
<path d="M369.863,247.346v 0.512181" fill="none" stroke="#00ff00"/>
<path d="M368.347,247.858h 3.03171" fill="none" stroke="#00ff00"/>
<path d="M387.043,253.392v -0.506494" fill="none" stroke="#00ff00"/>
<path d="M385.527,252.885h 3.03171" fill="none" stroke="#00ff00"/>
<path d="M387.043,253.392v 0.506494" fill="none" stroke="#00ff00"/>
<path d="M385.527,253.898h 3.03171" fill="none" stroke="#00ff00"/>
<path d="M404.222,259.111v -0.502" fill="none" stroke="#00ff00"/>
<path d="M402.706,258.609h 3.03171" fill="none" stroke="#00ff00"/>
<path d="M404.222,259.111v 0.502" fill="none" stroke="#00ff00"/>
<path d="M402.706,259.613h 3.03171" fill="none" stroke="#00ff00"/>
<path d="M421.402,257.609v -0.504954" fill="none" stroke="#00ff00"/>
<path d="M419.886,257.104h 3.03171" fill="none" stroke="#00ff00"/>
<path d="M421.402,257.609v 0.504954" fill="none" stroke="#00ff00"/>
<path d="M419.886,258.114h 3.03171" fill="none" stroke="#00ff00"/>
<path d="M438.582,271.931v -0.481914" fill="none" stroke="#00ff00"/>
<path d="M437.066,271.449h 3.03171" fill="none" stroke="#00ff00"/>
<path d="M438.582,271.931v 0.481914" fill="none" stroke="#00ff00"/>
<path d="M437.066,272.413h 3.03171" fill="none" stroke="#00ff00"/>
<path d="M455.761,315.38v -0.426855" fill="none" stroke="#00ff00"/>
<path d="M454.245,314.953h 3.03171" fill="none" stroke="#00ff00"/>
<path d="M455.761,315.38v 0.426855" fill="none" stroke="#00ff00"/>
<path d="M454.245,315.807h 3.03171" fill="none" stroke="#00ff00"/>
<path d="M472.941,360.813v -0.37401" fill="none" stroke="#00ff00"/>
<path d="M471.425,360.439h 3.03171" fill="none" stroke="#00ff00"/>
<path d="M472.941,360.813v 0.37401" fill="none" stroke="#00ff00"/>
<path d="M471.425,361.187h 3.03171" fill="none" stroke="#00ff00"/>
<path d="M490.121,407.608v -0.300459" fill="none" stroke="#00ff00"/>
<path d="M488.605,407.308h 3.03171" fill="none" stroke="#00ff00"/>
<path d="M490.121,407.608v 0.300459" fill="none" stroke="#00ff00"/>
<path d="M488.605,407.909h 3.03171" fill="none" stroke="#00ff00"/>
<path d="M77.8085,350.937l 17.1797, -5.37618l 17.1797, -3.15683l 17.1797, -4.39967l 17.1797, -5.83175l 17.1797, -7.42968l 17.1797, -8.26376l 17.1797, -9.38465l 17.1797, -7.57504l 17.1797, -3.86507l 17.1797, -8.16133l 17.1797, -5.61226l 17.1797,
 -5.79468l 17.1797, -5.05718l 17.1797, -8.5974l 17.1797, -3.84264l 17.1797, -6.49219l 17.1797, -4.75086l 17.1797, 6.0454l 17.1797, 5.71957l 17.1797, -1.50233l 17.1797, 14.3218l 17.1797, 43.4494l 17.1797, 45.4327l 17.1797, 46.7955" fill="none"
 stroke="#00ff00"/>
<g stroke="#00ff00" stroke-width="1" fill="#00ff00">
<circle cx="77.8085" cy="350.937" r="0.121268"/>
<circle cx="94.9882" cy="345.561" r="0.121268"/>
<circle cx="112.168" cy="342.404" r="0.121268"/>
<circle cx="129.348" cy="338.005" r="0.121268"/>
<circle cx="146.527" cy="332.173" r="0.121268"/>
<circle cx="163.707" cy="324.743" r="0.121268"/>
<circle cx="180.887" cy="316.479" r="0.121268"/>
<circle cx="198.066" cy="307.095" r="0.121268"/>
<circle cx="215.246" cy="299.52" r="0.121268"/>
<circle cx="232.426" cy="295.655" r="0.121268"/>
<circle cx="249.605" cy="287.493" r="0.121268"/>
<circle cx="266.785" cy="281.881" r="0.121268"/>
<circle cx="283.965" cy="276.086" r="0.121268"/>
<circle cx="301.144" cy="271.029" r="0.121268"/>
<circle cx="318.324" cy="262.432" r="0.121268"/>
<circle cx="335.504" cy="258.589" r="0.121268"/>
<circle cx="352.683" cy="252.097" r="0.121268"/>
<circle cx="369.863" cy="247.346" r="0.121268"/>
<circle cx="387.043" cy="253.392" r="0.121268"/>
<circle cx="404.222" cy="259.111" r="0.121268"/>
<circle cx="421.402" cy="257.609" r="0.121268"/>
<circle cx="438.582" cy="271.931" r="0.121268"/>
<circle cx="455.761" cy="315.38" r="0.121268"/>
<circle cx="472.941" cy="360.813" r="0.121268"/>
<circle cx="490.121" cy="407.608" r="0.121268"/>
</g>
<rect x="57.1929" y="54.8739" width="198.425" height="65.8487" fill="white"/>
<path d="M57.1929,120.723h 198.425" fill="none" stroke="black"/>
<path d="M255.618,120.723v -65.8487" fill="none" stroke="black"/>
<path d="M255.618,54.8739h -198.425" fill="none" stroke="black"/>
<path d="M57.1929,54.8739v 65.8487" fill="none" stroke="black"/>
<text xml:space="preserve" x="106.61" y="70.4872" fill="black" font-size="13.7116" font-family="Helvetica">TYPEA</text>
<path d="M64.6339,65.8487h 34.7244" fill="none" stroke="black"/>
<g stroke="black" stroke-width="1" fill="black">
<circle cx="81.9961" cy="65.8487" r="0.121268"/>
</g>
<text xml:space="preserve" x="106.61" y="92.4671" fill="black" font-size="13.7116" font-family="Helvetica">TYPEB</text>
<path d="M64.6339,87.7982h 34.7244" fill="none" stroke="#ff0000"/>
<g stroke="#ff0000" stroke-width="1" fill="#ff0000">
<circle cx="81.9961" cy="87.7982" r="0.121268"/>
</g>
<text xml:space="preserve" x="106.61" y="114.447" fill="black" font-size="13.7116" font-family="Helvetica">TYPEC</text>
<path d="M64.6339,109.748h 34.7244" fill="none" stroke="#00ff00"/>
<g stroke="#00ff00" stroke-width="1" fill="#00ff00">
<circle cx="81.9961" cy="109.748" r="0.121268"/>
</g>
<text xml:space="preserve" x="95.9988" y="23.4957" fill="black" font-size="13.6269" font-family="Helvetica">500 MeV/c electron incident at 40 degrees(DAVIS LUT model)</text></svg>
